<?xml version="1.0" encoding="utf-8"?>
<!-- Generator: Adobe Illustrator 19.0.0, SVG Export Plug-In . SVG Version: 6.00 Build 0)  -->
<svg version="1.1" id="Layer_1" xmlns="http://www.w3.org/2000/svg" xmlns:xlink="http://www.w3.org/1999/xlink" x="0px" y="0px"
	 viewBox="0 0 850.4 848.5" style="enable-background:new 0 0 850.4 848.5;" xml:space="preserve">
<style type="text/css">
	.st0{fill:#E8E8E8;}
	.st1{fill:#0F0F0F;}
	.st2{fill:#D7D7D7;}
	.st3{fill:#222222;}
	.st4{fill:#8DD4FD;}
	.st5{fill:#F0F0F0;}
	.st6{fill:none;stroke:#000000;stroke-width:2;stroke-miterlimit:10;}
	.st7{stroke:#FFFFFF;stroke-miterlimit:10;}
	.st8{font-family:'MyriadPro-Bold';}
	.st9{font-size:26px;}
	.st10{font-family:'MyriadPro-Regular';}
	.st11{font-size:24px;}
	.st12{font-family:'Verdana';}
	.st13{font-size:34px;}
	.st14{stroke:#8DD4FD;stroke-miterlimit:10;}
</style>
<path class="st0" d="M239.8,237.3c27.5-31.9,55-63.9,82.5-95.8c11.7-13.5,24.9-25.4,38.2-37.3c18.9-16.9,40.6-23.4,65.7-22.3
	c30.3,1.3,60.6,1.8,90.8,3.3c5.5,0.3,11,0.6,16.4,1c9.8,0.8,14.8,4.9,17.4,14.4c1.3,4.8,2.7,9.8,2.7,14.7c0.1,6.1,3,10.3,6.4,14.6
	c17.4,21.6,37.9,39.7,60.8,55.3c7.9,5.4,14.8,11.8,21.8,18.3c1.1,1,7.3,6.9,8.7,8.4c6.8,7,10.2,15.7,12.4,25c0,0,0.1,0.7,0.1,1.3
	c0,0.9,0,2.2,0,4.2c-0.1,12.1-0.3,40.4-0.4,42.4c-0.5,39.3-4.1,78.5-6.2,117.7c-2.5,44.7-4.3,89.5-3.9,134.3
	c0.2,27.3-0.8,54.7,3.7,81.7c3.8,23,8,45.9,12.4,68.8c9.5,48.7,19.3,97.3,29,145.9c0.2,1,0.5,1.9,0.8,2.9c0.1,0.7,0.2,1.5,0.4,2.2
	c0.2,0.9,0.4,1.9,0.6,2.8c0,1.2,1.3,6.4,1.3,7.5c0.3,0,147.7,0,148.9,0c0-0.6,0.1-842.2,0-848.6c-2.5-0.1-535.9,0-535.2,0
	c2.1,3.6,2,7.6,2.2,11.6c0.3,7.2,0.9,14.4,1.3,21.6c0.1,0.9,0.3,1.9,0.4,2.8c0.3,8.1,2.6,15.7,5.5,23.2c2.9,8.8,6.5,17.4,6.8,26.9
	c0.2,6.8-1,12.7-5.6,18c-18.9,21.7-37.9,43.3-56.6,65.1c-17.2,20.1-34.3,40.2-50.4,61.2c-0.8,1.1-4,5.4-4.7,6.6
	c-5.8,9-11.1,18.2-11.1,29.4c0,5,0.7,10,3.7,14.3c1.2,1.7,2.8,3,5,2.8c2.3-0.2,3.4-2,3.9-4c0.7-2.5,1.4-5.1,1.7-7.7
	c0.8-6.3,2.9-11.7,7.2-16.5C228.2,251,238.6,238.7,239.8,237.3z"/>
<g>
	<path class="st1" d="M239.8,237.3c27.5-31.9,55-63.9,82.5-95.8c11.7-13.5,24.9-25.4,38.2-37.3c18.9-16.9,40.6-23.4,65.7-22.3
		c30.3,1.3,60.6,1.8,90.8,3.3c5.5,0.3,11,0.6,16.4,1c9.8,0.8,14.8,4.9,17.4,14.4c1.3,4.8,2.7,9.8,2.7,14.7c0.1,6.1,3,10.3,6.4,14.6
		c17.4,21.6,37.9,39.7,60.8,55.3c7.9,5.4,14.8,11.8,21.8,18.3c1.1,1,7.3,6.9,8.7,8.4c6.8,7,10.2,15.7,12.4,25c0,0,0.1,0.7,0.1,1.3
		c0,0.9,0,2.2,0,4.2c-0.1,12.1-0.3,40.4-0.4,42.4c-0.5,39.3-4.1,78.5-6.2,117.7c-2.5,44.7-4.3,89.5-3.9,134.3
		c0.2,27.3-0.8,54.7,3.7,81.7c3.8,23,8,45.9,12.4,68.8c9.5,48.7,19.3,97.3,29,145.9c0.2,1,0.5,1.9,0.8,2.9c0.1,0.7,0.2,1.5,0.4,2.2
		c0.2,0.9,0.4,1.9,0.6,2.8c0,1.2,1.4,7,1.3,8.2c0,1.1-0.7,1.9-1.7,2.2c-1.3,0.4-2.4-0.2-2.9-1.3c-0.6-1.2-2.4-7.2-2.7-8.4
		c-11.5-54.2-22.3-108.5-32.9-162.8c-0.1-0.3,0-0.7,0-1c1.1-0.8,0.7-1.5-0.3-2c-0.2-1-0.4-2-0.7-3c1.1-0.8,0.7-1.5-0.3-2
		c-0.2-1-0.4-2-0.6-3.1c0.9-0.8,0.6-1.4-0.4-1.9c-0.6-3-1.1-6.1-1.7-9.1c0.9-0.8,0.6-1.4-0.3-1.9c-0.1-0.8-0.2-1.5-0.3-2.3
		c0.4-1.4,0.8-2.8-0.7-3.8c-0.2-1-0.4-2-0.6-3.1c0.9-0.8,0.6-1.4-0.3-1.9c-0.2-1.4-0.5-2.7-0.7-4.1c0.9-0.8,0.6-1.4-0.3-1.9
		c-0.2-1.4-0.5-2.7-0.7-4.1c0.9-0.8,0.6-1.4-0.3-1.9c-0.2-1.4-0.5-2.7-0.7-4.1c0.9-0.8,0.7-1.4-0.3-1.9c-0.2-1.4-0.5-2.7-0.7-4.1
		c0.9-0.8,0.7-1.4-0.3-1.9c-0.3-1.7-0.5-3.4-0.8-5.1c0.9-0.7,0.7-1.3-0.2-1.9c-0.3-2-0.5-4.1-0.8-6.1c1-1,0.9-2-0.2-2.9
		c-0.3-3.4-0.5-6.7-0.8-10.1c1.1-1.3,1.1-2.6-0.2-3.9c-0.5-6.4-1.1-12.7-0.8-19.1c1.1-4,1.3-8-0.2-11.9c-0.7-18.3-0.6-36.7,0-55
		c1.7-3.9,1.3-7.9,0.2-11.9c-0.4-9.7,0.4-19.4,0.9-29.1c1.5-2.2,1.2-4.5,0.3-6.9c0.2-5,0.5-10.1,0.7-15.1c1.4-1.6,1.2-3.2,0.2-4.9
		c0.2-4,0.5-8.1,0.7-12.1c1.4-1.6,1.3-3.2,0.3-4.9c0.2-3.7,0.5-7.4,0.7-11.1c1.3-1.2,1.3-2.5,0.2-3.9c0.3-4,0.5-8.1,0.8-12.1
		c1.3-1.2,1.3-2.5,0.2-3.9c0.3-4.4,0.6-8.7,0.8-13.1c1.3-1.2,1.3-2.6,0.2-3.9c0.3-4.4,0.5-8.7,0.8-13.1c1.5-1.6,1.3-3.2,0.3-4.9
		c0.2-4.4,0.5-8.7,0.7-13.1c1.5-1.6,1.4-3.2,0.2-4.9c0.3-4.7,0.5-9.4,0.8-14.1c1.6-1.9,1.3-3.9,0.3-5.9c0.2-5,1.2-29.3,1.2-31.8
		c0.3-10.6,0.2-21.3,1.3-31.9c1.4-13.5-4.9-23.7-12.2-33.8c-0.9-1.3-5.1-5.7-5.9-6.5c-5.3-5.3-10.5-10.7-16.7-14.9
		c-24.5-16.5-46-36.2-64.5-59.2c-6.8-8.4-12.1-17.2-13.6-28.3c-1.6-11.9-5.4-14.9-17.2-16.5c-1.3-0.2-2.7-0.3-4-0.3
		c-32.4-1.9-64.8-3-97.2-4c-14.6-0.4-28.9,0.3-42.1,7.8c-19.1,11-35.3,25.6-50.1,41.7c-30.7,33.5-59.2,69-89.2,103.1
		c-0.6,0.7-4.2,4.7-5.4,6.1c-4,4.9-8.1,9.7-12.1,14.5c-3.2,3.8-4.9,8.2-5.6,13.1c-0.4,2.6-1.1,5.2-1.9,7.7c-1.4,4.7-4.2,7.9-9.5,8.1
		c-5.4,0.2-9.5-2-11.6-6.9c-4.1-9.4-5.6-19-2.4-29.1c2.3-7.2,6.6-13.4,9.4-20.2c0.3-0.6,7.8-10.6,11.3-14.9
		c29.2-36.1,59.5-71.2,90.4-105.8c4.1-4.6,7.8-9.5,11.9-14.2c4.6-5.2,5.7-11.1,3.8-17.6c-1.2-4.3-2.2-8.7-4-12.8
		c-8.7-19.9-9.7-40.9-9.6-62.1c0-2.4,0.9-4.5,2-6.5c0.7,0,1.3,0,2,0c2.1,3.6,2,7.6,2.2,11.6c0.3,7.2,0.9,14.4,1.3,21.6
		c0.1,0.9,0.3,1.9,0.4,2.8c0.3,8.1,2.6,15.7,5.5,23.2c2.9,8.8,6.5,17.4,6.8,26.9c0.2,6.8-1,12.7-5.6,18
		c-18.9,21.7-37.9,43.3-56.6,65.1c-17.2,20.1-34.3,40.2-50.4,61.2c-0.8,1.1-4,5.4-4.7,6.6c-5.8,9-11.1,18.2-11.1,29.4
		c0,5,0.7,10,3.7,14.3c1.2,1.7,2.8,3,5,2.8c2.3-0.2,3.4-2,3.9-4c0.7-2.5,1.4-5.1,1.7-7.7c0.8-6.3,2.9-11.7,7.2-16.5
		C228.2,251,238.6,238.7,239.8,237.3z"/>
	<path class="st1" d="M481.1,672.9c-1.5-17.6,1.8-35.1,1.6-52.8c-0.2-17.8-7.9-27.1-25.2-30.5c-2.6-0.5-4.9,0-7.3,0.6
		c-0.7-2.8-2.3-3.7-5-2.6c-1.7-0.2-3.4-0.4-5.1-0.6c-0.9-1.2-1.8-1.3-2.9-0.3c-2.4-0.3-4.7-0.5-7.1-0.8c-0.9-1.2-1.8-1.2-2.9-0.2
		c-2.4-0.3-4.7-0.5-7.1-0.8c-0.9-1.2-1.8-1.2-2.9-0.2c-2.4-0.2-4.7-0.5-7.1-0.7c-0.9-1.2-1.8-1.2-2.9-0.2c-2.4-0.3-4.7-0.5-7.1-0.8
		c-0.6-0.9-1.2-1-1.9-0.1c-2.4-0.3-4.7-0.5-7.1-0.8c-0.9-1.2-1.8-1.2-2.9-0.3c-2-0.2-4.1-0.5-6.1-0.7c-0.5-1-1.2-1.1-1.9-0.2
		c-2-0.3-4.1-0.6-6.1-0.8c-0.5-1-1.2-1.1-1.9-0.2c-1.7-0.2-3.4-0.5-5.1-0.7c-0.5-0.9-1.2-1.2-1.9-0.2c-1.7,0.1-3.4-0.1-5-0.8
		c-0.6-1-1.2-1.3-2-0.2c-1.4-0.2-2.7-0.4-4.1-0.7c-0.5-1-1.1-1.3-2-0.3c-1.4-0.2-2.7-0.5-4.1-0.7c-0.5-0.9-1.1-1.2-1.9-0.3
		c-1-0.2-2-0.4-3-0.6c-0.5-1-1.1-1.4-2-0.3c-1-0.2-2-0.4-3-0.7c-0.5-1-1.1-1.4-2-0.3c-2.4-0.1-4.8-0.6-7-1.6c-0.5-1-1-1.5-2-0.4
		c-0.7-0.2-1.3-0.4-2-0.6c-0.7-1.3-1.7-1.2-2.8-0.6c-11.3-2.6-22.2-6.1-32.3-11.8c-14.8-8.4-22.6-21.2-23.4-38.6
		c-0.7-14.7,1.7-28.5,8.6-41.5c4.5-8.4,3.9-16-2.2-23.6c-3.5-4.4-6.1-9.5-8.9-14.5c-0.9-1.5-1.9-3.4-0.5-5.2
		c2.8-3.8,5.7-7.6,9.3-10.5c2.1-1.7,11.7-6.1,12.2-6.4c10.1-3.9,17.5,0.7,24.1,7.7c1.1,1.1,7.7,22.6,7.8,32.6c0,2.1-0.4,4.3,1.9,5.9
		c0-3.6,0.7-7.2-0.2-10.4c-1.2-4.1-0.3-7.1,1.5-10.6c1.8-3.5,2.7-16.7,2.6-18.5c-0.3-5.6,0.3-11,2.4-16.1c0.8-2,1.8-4.2,4.4-4.3
		c2.3-0.1,3.5,1.6,4.6,3.4c2.2,3.7,3.7,8.3,6.8,11c8.4,7.3,13.1,16.8,18.1,26.4c2.8,5.3,7,10.1,9.6,15.7c0.9,2,2.2,3.9,5,3.1
		c3-0.8,3.1-3.3,2.8-5.7c-0.8-6.3-3.8-11.7-7.2-16.9c-4.3-6.5-9.1-12.7-13.6-19.1c-3.8-5.5-7.2-11.2-8.4-17.9
		c-1.8-9.8,0.7-15.1,9.5-19.6c9.3-4.8,19.4-7,29.6-8.5c38.7-5.7,77.3-6.1,115.6,2.6c17.7,4,34.1,11.3,47.7,23.8
		c18.8,17.4,25,39.5,23.9,64.2c-0.9,19.7-6.2,38.4-13.8,56.4c-0.3,0.7-1.2,1.5-0.4,2.1c1.2,0.9,2.1,0.1,2.9-0.9
		c3.6-4.2,6.6-8.7,9.6-13.4c1.6-2.5,3.1-5.1,4.9-7.5c2.2-2.9,5-5,9-3.9c4,1.2,5.1,4.5,5.5,8.1c0.7,6.5-0.2,12.9-1.5,19.3
		c-3.3,15.9-9.5,30.8-15.6,45.8c-10.6,26-16.1,53.1-18.3,81c-0.1,1.6,0.1,3.3,0.1,5c2.7,5.2,7.5,3.9,11.9,3.7c1.1,0.5,2.1,1,3.4,1.6
		c-2,0.6-3.1,2.5-5.1,2.5c-0.1-2.6-1.9-1.5-2.7-0.9c-1.8,1.6-6,0.7-5.3,4.9c0.2,1.6,0.5,3.2,0.7,4.8c-0.8,3.2,0.9,6,1.2,9
		c0.3,2.2-0.8,4.8,2.1,6c2.2,13.1,6.3,25.8,9.2,38.8c1.7,7.6,3.7,15.2,5.5,22.8c0.1,0.9,0.1,1.9,1.1,2.4c1.2,9.2,5,17.8,5.8,27.1
		c-0.9,0.7-0.8,1.3,0.2,1.9c1.7,6.8,3.3,13.6,5,20.3c0.3,1.6-0.5,3.4,1,4.7c3,10.6,5.9,21.3,7.6,32.2c-0.5,1.3-0.8,2.6,0.4,3.8
		c0.3,1.3,0.4,2.7-1.2,3.1c-1.8,0.4-2.3-1.4-3.2-2.4c-3.8-11.2-6.7-22.7-9.5-34.2c-0.5-2.2-0.9-4.3-3.9-3.8c0-0.5,0-1,0-1.5
		c2.5-0.4,2.1-2,1.6-3.7c-3.9-15.4-7.8-30.8-11.7-46.2c-0.1-1.4,0.6-3-0.9-4.2c-0.6-2.2-1.3-4.4-1.8-6.7
		c-3.2-15.6-6.7-31.1-11.3-46.3c-1.3-4.2-0.9-9.2-4.9-12.4c0-0.5,0-1.1,0-1.6c-0.1-4.7-2.1-9.2-1.3-14c0.5-3.1,0.1-4.9,0.1-7.8
		c-0.2-15.4,2.4-30.5,5.4-45.5c2-7.4,3.9-14.9,5.9-22.3c0.9-1,1-2.2,1-3.4l0,0.1c1-0.8,0.9-2,0.9-3.1l0,0
		c7-20.9,14.3-41.8,20.8-62.8c1.6-5.2,2.7-11,2.1-16.7c-0.4-3.4-1.3-3.6-4-1.5l0.1-0.1c-1.7,1.2-2.7,3-3.4,4.8l0.1-0.1
		c-1.4,1.2-2.3,2.7-2.8,4.4l0.1-0.2c-1.1,0.8-1.8,1.8-2,3.2l0.1-0.1c-0.5,0.7-0.9,1.4-1.4,2.1c-4.5,6.4-10.1,11.8-15.9,17.1
		c-1.8-0.2-2.5,1.7-3.9,2.1c-4.1-2.4-3.3-6.1-2.3-9.6c2-6.7,4.3-13.4,6.5-20.1c0.3-0.8,0.6-1.7,0.9-2.5l0,0
		c7.6-18.4,10.7-37.6,8.7-57.5c-1.1-11-3.8-21.6-10.6-30.6l0.1,0.1c-0.3-0.4-0.6-0.9-0.9-1.3l0.2,0.2c-0.1-0.9-0.4-1.6-1.3-2
		l0.1,0.1c-0.3-0.5-0.7-1-1-1.5c-5.8-5.6-10.9-11.9-17.8-16.4c-15.7-10.1-33.1-15.2-51.3-18.2c-6.7-1.1-13.5-3.2-20.5-1.9
		c-0.6-1.1-1.7-0.8-2.7-0.9c-13.3-0.4-26.6-0.4-39.8,0.2c-6.1,0.3-12.2,0.3-18.3,1c-7.7,0.9-15.5,0.9-22.9,3.7l0.1-0.1
		c-1.5,0-3-0.1-4.1,1l0.1-0.1c-6.6,1.1-12.9,2.8-18.2,7l0.1-0.1c-4.1,2.4-5.2,6.1-4.8,10.5c0.5,5.3,2.6,9.8,5.8,13.9l-0.1-0.1
		c0.7,1,1.4,2.1,2.1,3.1l-0.1-0.1c0.8,1,1.5,2,2.3,2.9l-0.1-0.1c0.4,0.5,0.7,1,1.1,1.5c4.6,6.7,9.8,13,13.4,20.3
		c2.7,5.4,5.1,10.9,4.8,17c-0.2,5-2.8,7.7-8,8.7c-4.7,0.9-8.5,0.3-10.5-4.9c-1.6-4-3.5-7.9-6.3-11.3c-4.1-4.9-7.1-10.4-9.1-16.5
		c-1.5-4.6-4.4-8.8-7.5-11.9c-3.8-3.8-8.2-7-10.8-12.2c-2.1,6.8-1.3,13.3,0,19.9c0,0.1,0.8,7,0.9,8.1c-0.4,1.1-0.8,2.2-1.1,3.2
		l0.1-0.1c-0.4,0.4-0.7,0.8-1.1,1.2c0,0,0.1-0.1,0.1-0.1c-0.4,0.4-0.7,0.7-1.1,1.1c0,0,0.1-0.1,0.1-0.1c-2,1.1-2.2,3.1-2.3,5.1
		c-0.3,5.2-0.4,10.5-0.5,15.7c-0.2,4.7-3.8,5.6-7.2,5.8c-3.5,0.2-4.7-2.7-5.2-5.6c-0.5-2.8-0.7-5.6-0.9-8.4
		c-0.6-8.7-0.2-17.6-5.5-25.2c-0.1-1-0.2-2-1.3-2.5l0.1,0c-0.5-2.3-2.1-3.8-4.1-4.7c-7.9-3.4-15.4-3.5-22.2,2.7l0.1-0.1
		c-1.1,0.1-1.9,0.8-2.4,1.7c0,0,0.1-0.1,0.1-0.1c-0.6,0.5-1.2,1-1.9,1.4l0.2-0.1c-6.6,4.4-6.9,5.9-2.3,12c1.1,1.4,2.3,2.8,3.4,4.2
		l0,0c0.3,1.2,1.1,2.2,2.1,2.9l0,0c0.3,0.5,0.6,0.9,0.9,1.4c3,6,7.9,11.4,6,18.9c-1.6,4-3.2,8-4.9,11.9c-3.9,8.9-7.3,17.9-8.5,27.6
		c-1.4,11.2,1.6,21.3,8.4,30.4L280,541c0.3,0.4,0.7,0.8,1,1.2l-0.1-0.1c0.6,1.7,1.7,3,3.2,3.9l-0.1-0.1c1.2,1.9,2.8,3.3,4.9,4.2
		l-0.1-0.1c0.5,1,1.3,1.6,2.4,1.8l0.3,0.1c0.5,0.3,1,0.7,1.6,1l-0.1,0c2.5,1.3,4.9,2.8,7.4,3.9c22.1,9.8,45.7,13.6,69.4,16.9
		c26,3.6,52.2,5.2,78.3,8.2c4.4,0.5,8.7,2,13.3,1.4c1.2-0.3,9.4,3.4,12,4.8c0.9,1.2,2,2,3.5,2.3l-0.1-0.1
		c8.9,6.9,11.5,16.5,12.1,27.2c0.9,16.6-2.6,33-2,49.6c-0.9,0.8-0.7,1.4,0.2,1.9c0.3,1,0.6,2.1,1,3.1c0.3,0.6,0.7,1.2,1,1.9
		c-1.2,4.2,0.8,8,1.6,11.9c2,9.4,2.5,11.5,3.1,13.9c4.8,18.3,6.9,37.1,11.7,55.4c1.2,4.5,3.1,6.1,7.4,5.1c0,0.5,0,1.1,0.1,1.6
		c-5.4,0.8-5.6,1.2-3.8,6.6c0.4,1.2,0.5,2.6,0.8,3.9c3.3,13,6.7,25.9,10,38.8c0.3,0.6,0.7,1.2,1,1.7c-0.2,0.6-0.6,1.3-0.5,1.8
		c2.6,10.5,5.2,20.9,7.8,31.3c-3.2,3.7-5.9,3.1-7.3-2c-2.3-8.3-4.1-16.7-6.2-25c-0.5-2-12.5-47.4-14.1-53.1
		c-0.6-2.2-10.8-51.6-13-62.9c-0.8-4-1.4-8.3-2.8-13c-1.4-4.6-1.9-9.4-2.8-14.1C481.8,675,481.4,673.9,481.1,672.9z"/>
	<path class="st1" d="M604.8,280.6c12,3.7,22.1,10.3,30.7,19.3c2.3,2.4,6,3.7,6.5,7.6c0.1,0.9,2.9,10.7,3.4,13.6
		c1.7,11.4,2.5,22.8,1.9,34.4c-0.1,1.6-0.4,3.3-0.8,4.9c-0.6,2.2-2,4-4.4,4.3c-2.6,0.4-4.5-1.1-5.7-3.2c-2.5-4.2-3.9-8.8-5.4-13.4
		c-1.8-5.6-3.8-11-7.2-15.8c-4.5-6.5-10.4-10.6-18.3-11.8c-18.2-2.5-36.5-3.1-54.8-3.5c-34.8-0.8-69.6-0.9-104.3,1
		c-14.4,0.8-28.9,1.1-42.7,6.5c-18.3,7.1-32.2,19.1-41.3,36.6c-2.5,4.9-5.4,9-10.6,11.9c-6.9,3.9-10.9,11-14.4,18.1
		c-1.2,2.4-2.3,4.8-3.6,7.1c-1,1.8-2.6,3.1-4.9,2.7c-2.4-0.4-3.2-2.3-3.6-4.3c-0.5-3.1-1.2-6.4-0.8-9.4c1.4-11.1-3.2-20-9.7-28.8
		c-1.6,1.8-1.9,4.1-2.5,6.1c-1.9,6.5-4.1,13-7.6,18.9c-4.7,8-10.5,10.3-19.4,7.6c-9.8-3-16.6-10.2-23.4-17.3
		c-1.8-1.9-4.8-3.7-4.8-6.4c0-0.9,26-34.1,18.7-54.2c-1.5-4.1-2.8-8.2-4.1-12.3c-3.7-11.2,0-18.8,11.3-22.9c3-1.1,6-1.9,9.3-1.7
		c1.1,1,2,0.9,2.9-0.3c4.3-0.9,8.7-1,13.1-0.8c2.7,1.1,5.3,1.4,7.9-0.2c7.4-0.5,38.9-0.7,44.9-0.7c33.8,0,67.5-0.1,101.3,0
		c10.6,0,21.3,0.4,31.9,0.6c9,1.9,18,1.4,27,0.2c26.7,0.6,53.5-1.9,80,4 M278.7,380.3c0.4,0.3,0.9,0.6,1.3,0.9l-0.1-0.1
		c3.8,3,7.4,6.2,12.8,3.9c2.6-0.2,4.2-1.9,5.4-4.1c0.7-0.5,1.2-1.1,1.3-2l-0.1,0.2c2.4-2.5,3.5-5.7,4.3-9l-0.1,0
		c0.9-0.6,0.8-1.6,0.9-2.5c0.6-1.7,1.3-3.3,1.8-5c2.1-6.5,3-13.4,6-19.6c1.2-0.2,2.4-0.4,3.6-0.6c5.9,14.6,16.7,27.5,15.8,44.7
		c4.2-9.1,10.2-15.9,18.4-20.9c2.7-1.7,4.6-4.4,6-7.2c7.9-16,20.2-27.8,35.2-37l0.1,0c0.5-0.2,0.9-0.3,1.4-0.5
		c8.3-4,17.1-6.1,26.1-7.9c2.8-0.3,5.6-0.6,8.4-0.9c1.3,0.2,2.5,0.3,3.6-0.5c1.1-0.1,2.3-0.2,3.4-0.3c1.2,0,2.3,0.1,3.5,0.1
		c53.3-1.4,106.7-1.9,160,1.5c13.5,0.9,24.3,5,32.9,15.7c3.4,4.2,4,9,5.6,13.6c0.5,4.3,1.6,8.5,3.7,12.3l-0.1,0.1
		c0.2,0.8,0,1.9,1.2,1.9c0.1,0,0.2-1.4,0.3-2.1c1.2-9.1,1.7-18.2,0-27.2c-1.3-7.2-8.2-10.8-7.1-14.5c0.8-2.6,0.5-4.3-1.3-6.6
		c-6.9-8.7-15.6-14.6-25.8-18.8c-7.3-3-14.4-3.2-15.7-3.2c-1.2-1.8-3.2-1.3-4.9-1.6c-6.7-1.1-13.4-1.7-20.1-1.6
		c-0.7-1.7-2-1.1-3.2-0.9c-0.3-0.3-0.5-0.4-0.9-0.1c-1.7-0.9-3.6-0.5-5.4-0.5c-29.6-0.1-59.2-0.2-88.8-0.2
		c-15.3,0-30.6,0.2-45.9,0.4c-15.4,0-54.2,1.3-56.1,0.9c-10.1-0.6-20.1-0.3-30.2,0.2c-8.6,0.1-17.2,0.2-25.9,0.3
		c-6.6,0.1-13.3,0.2-19.9,0.6c-6,0.4-10.1,4.4-13.5,8.6c-2.3,2.9,1.1,6.1,2,9.1c3.7,11.3,6.6,22.6,4.6,34.6
		c-1.7,3.4-3.2,6.9-5.3,10.1c-3,4.7-6.5,9.1-9.8,13.7c-0.9,1.3-3.2,4.2-3.7,6.5c-0.5,2.1,1.1,3.3,2.4,4.5c3.4,3.1,6.8,6.2,10.1,9.3
		c0.3,0.8,0.9,1.3,1.7,1.5L278.7,380.3z"/>
	<path class="st1" d="M652.6,804.1c2.9,13.6,5.9,27.3,8.8,40.9c-0.1,1.6,0.1,3.3-2.3,3.5c-2.1,0.2-3.5-0.4-4.1-2.5
		c-0.6-2-1-4.1-1.5-6.1c1-0.9,0.5-1.5-0.4-1.9c-2.1-10.1-4.5-20.1-6.3-30.3c-0.8-4.4-1.6-7.7-3.6-16.7
		c-8.9-38.7-14.1-78.3-24.9-116.6c-3-10.7-6.4-21.2-8.5-32.1c-0.8-4.1-1.1-8.3-0.6-12.4c0.7-6.4,4.6-8.5,10.6-6
		c5.1,2.1,7.6,6.3,9.4,11.1c4.8,12.5,6.9,25.7,9.8,38.7c8.8,39.2,17.5,78.3,26.2,117.5c0.5,2.5,2.6,12.5,4.3,21.2
		c1.9,10,4.3,19.9,5.2,30c0.1,1.5,0.4,3.2-1,4.1c-1.5,0.9-2.3-0.8-3.3-1.5c-3.5-11.1-5.8-22.6-7.6-34c-0.4-2.7-4.6-20.6-5.1-22.9
		c-8.2-37.2-16.3-74.5-24.7-111.7c-2.8-12.3-4.3-25-9.1-36.8c-1.2-2.9-2.4-5.8-4.9-8c-0.7-0.7-1.6-1.5-2.6-1.2
		c-1.6,0.4-0.7,1.9-1.2,3.6c1.1,5.1,2.2,10.8,3.7,16.4c12.6,48.3,23.8,96.9,32.2,146.2"/>
	<path class="st2" d="M487,656.4c-0.2,3.5-0.2,7.1-0.1,10.6c0.5,0.6,0.6,1.2,0.2,1.9c0.1,0.2,0.1,0.3,0.2,0.5
		c0.3,0.9,0.5,1.7,0.8,2.6c0.7-0.1,1.8,9.9,2.7,13.7c0.8,3.8,2.5,11.5,3.1,13.9c4.8,18.3,6.9,37.1,11.7,55.4c1.2,4.5,1.9,8,3.6,13.3
		c0.4,1.2,0.5,2.6,0.8,3.9c3.3,13,10.4,41.9,10.5,42.4c2.6,10.5,5.2,20.9,7.8,31.3c3.8-0.6,7.5,0.9,11.3,0.9c15.9,0,31.8,0,47.7,0
		c2.2,0,4.3-0.1,6.2-1.3c-3.8-11.2-6.7-22.7-9.5-34.2c-0.5-2.2-1.9-7.3-2.3-9c-3.9-15.4-13.9-54.9-14.4-57.1
		c-3.2-15.6-6.7-31.1-11.3-46.3c-1.3-4.2-7.1-23.3-6.2-28c0,0,0.1-4.4,0.2-6.7c0-0.8,0-1.3-0.1-1.3c-0.2-15.3,2.4-30.4,5.4-45.3
		c-1.9,1.6-3.8,1.2-6,0.3c-18.2-7.3-36.4-14.6-54.7-21.7c-5.8-2.3-11.3-5.7-17.7-6.1c8.9,6.9,11.5,16.5,12.1,27.2
		C489.7,630.5,487.6,643.4,487,656.4z"/>
	<path class="st3" d="M121.4,330.1"/>
	<path class="st3" d="M562.2,691c-2.9-1.3-1.9-3.9-2.1-6c-0.4-3-2-5.8-1.2-9c6.1,0,11.8-1.8,17.6-3.3c7.2-0.2,14.4-0.3,21.5-0.5
		c5.8,1.8,12,1.9,18,4.7c-10.3,4.8-20.9,7.3-32,6.4c-5.3-0.4-9.3,0.9-13.5,3.5C567.9,688.3,565.4,690.4,562.2,691z"/>
	<path class="st2" d="M598,672.2c-7.2,0.2-14.4,0.3-21.5,0.5c-3.4-3-8.3-1.4-11.9-4c0.5-0.5,1-1,1.5-1.5c2-0.1,3.1-1.9,5.1-2.5
		c-1.3-0.6-2.3-1.1-3.4-1.6c0.1-0.3,0.1-0.6,0-0.9c15.8-4.7,31.2-4,46.7,4.2C608.9,669.8,602.9,669.6,598,672.2z"/>
	<path class="st2" d="M625.9,678.8c9.7,39,18.2,78.2,25,117.8c0.5,2.7,1.5,6.5,1.7,7.5c2.9,13.6,5.9,27.3,8.8,40.9
		c3,0,5.9,0,8.9-0.1c-3.5-11.1-5.8-22.6-7.6-34c-0.4-2.7-4.6-20.6-5.1-22.9c-8.2-37.2-16.3-74.5-24.7-111.7
		c-2.8-12.3-4.3-25-9.1-36.8c-1.2-2.9-2.4-5.8-4.9-8c-0.7-0.7-1.6-1.5-2.6-1.2c-1.6,0.4-0.7,1.9-1.2,3.6c1.1,5.1,2.2,10.8,3.7,16.4
		C621.1,659.9,623.6,669.4,625.9,678.8z"/>
	<path class="st3" d="M567.9,662.2c0.1,0.3,0.1,0.6,0,0.9c-4.4,0.2-9.1,1.5-11.9-3.7C560,660.3,563.9,661.2,567.9,662.2z"/>
	<path class="st3" d="M647.4,492.1c1.1,4,1.4,8-0.2,11.9C646.9,500,646.5,496,647.4,492.1z"/>
	<path class="st3" d="M647.2,559c1.5,3.9,1.3,7.9,0.2,11.9C646.7,566.9,646.7,563,647.2,559z"/>
	<path class="st3" d="M316.1,275.1c-2.6,1.5-5.2,1.3-7.9,0.2C310.8,274.4,313.5,274.7,316.1,275.1z"/>
	<path class="st3" d="M648.5,456.1c0.9,2.3,1.2,4.6-0.3,6.9C648.1,460.7,647.7,458.3,648.5,456.1z"/>
	<path class="st3" d="M656.4,315.1c1,2,1.3,4-0.3,5.9C655.9,319,655.6,317,656.4,315.1z"/>
	<path class="st3" d="M650.5,419.1c1,1.7,1.2,3.3-0.3,4.9C650,422.3,649.7,420.7,650.5,419.1z"/>
	<path class="st3" d="M654.4,353.1c1,1.7,1.2,3.3-0.3,4.9C653.9,356.3,653.7,354.7,654.4,353.1z"/>
	<path class="st3" d="M649.5,436.1c1,1.7,1.1,3.3-0.2,4.9C649,439.3,648.7,437.7,649.5,436.1z"/>
	<path class="st3" d="M655.4,335.1c1.1,1.7,1.3,3.3-0.2,4.9C654.9,338.3,654.7,336.7,655.4,335.1z"/>
	<path class="st3" d="M651.4,404.1c1.1,1.4,1.1,2.7-0.2,3.9C650.9,406.6,650.8,405.3,651.4,404.1z"/>
	<path class="st3" d="M648.2,590c1.3,1.2,1.3,2.5,0.2,3.9C647.8,592.6,647.9,591.3,648.2,590z"/>
	<path class="st3" d="M652.4,388.1c1.1,1.4,1.1,2.7-0.2,3.9C651.9,390.6,651.8,389.3,652.4,388.1z"/>
	<path class="st3" d="M653.4,371.1c1.1,1.3,1.2,2.7-0.2,3.9C652.9,373.6,652.8,372.3,653.4,371.1z"/>
	<path class="st3" d="M407.2,583.7c1.1-1,2-1,2.9,0.2C409.1,584.3,408.1,584.4,407.2,583.7z"/>
	<path class="st3" d="M649.2,604c1.1,0.9,1.3,1.8,0.2,2.9C648.8,606,648.8,605,649.2,604z"/>
	<path class="st3" d="M598,845c-1.2-1.1-0.9-2.4-0.4-3.8C598.5,842.4,598.3,843.7,598,845z"/>
	<path class="st3" d="M388.2,581.6c1.1-1,2-0.9,2.9,0.3C390.1,582.3,389.1,582.3,388.2,581.6z"/>
	<path class="st3" d="M437.2,586.7c1.1-1.1,2.1-0.9,2.9,0.3C439.1,587.3,438.1,587.3,437.2,586.7z"/>
	<path class="st3" d="M417.2,584.7c1-1,2-0.9,2.9,0.2C419.1,585.2,418.1,585.3,417.2,584.7z"/>
	<path class="st3" d="M427.2,585.7c1-1,2-0.9,2.9,0.2C429.1,586.2,428.1,586.3,427.2,585.7z"/>
	<path class="st3" d="M656,648.9c1.5,1,1.1,2.4,0.7,3.8C655.8,651.6,655.8,650.3,656,648.9z"/>
	<path class="st3" d="M295.1,276c-0.9,1.2-1.8,1.3-2.9,0.3C293.1,275.7,294.1,275.6,295.1,276z"/>
	<path class="st3" d="M584,784c-1-0.5-1.1-1.2-0.2-1.9C584.5,782.6,584.3,783.3,584,784z"/>
	<path class="st3" d="M651.2,620c0.9,0.5,1.1,1.1,0.3,1.9C650.8,621.3,650.9,620.7,651.2,620z"/>
	<path class="st3" d="M346.2,575.7c0.8-0.9,1.4-0.6,1.9,0.3C347.4,576.4,346.8,576.3,346.2,575.7z"/>
	<path class="st3" d="M398.2,582.7c0.7-0.9,1.3-0.8,1.9,0.1C399.4,583.2,398.8,583.3,398.2,582.7z"/>
	<path class="st3" d="M372.2,579.7c0.7-0.9,1.3-0.8,1.9,0.2C373.4,580.2,372.8,580.3,372.2,579.7z"/>
	<path class="st3" d="M652.2,626c0.9,0.5,1.2,1.1,0.3,1.9C651.8,627.3,651.8,626.7,652.2,626z"/>
	<path class="st3" d="M352.2,576.7c0.8-0.9,1.4-0.6,2,0.3C353.4,577.4,352.8,577.3,352.2,576.7z"/>
	<path class="st3" d="M661.1,675.9c1,0.5,1.4,1.1,0.3,2C661.3,677.3,661.2,676.6,661.1,675.9z"/>
	<path class="st3" d="M657.1,655c0.9,0.5,1.3,1.1,0.3,1.9C656.8,656.3,656.7,655.7,657.1,655z"/>
	<path class="st3" d="M659.1,666c0.9,0.5,1.2,1.1,0.4,1.9C658.9,667.3,658.7,666.7,659.1,666z"/>
	<path class="st3" d="M358.2,577.7c0.8-1,1.4-0.7,2,0.2C359.5,578.3,358.8,578.2,358.2,577.7z"/>
	<path class="st3" d="M655.2,644c0.9,0.5,1.2,1.1,0.3,1.9C654.9,645.3,654.8,644.7,655.2,644z"/>
	<path class="st3" d="M654.1,638c0.9,0.5,1.2,1.1,0.3,1.9C653.9,639.3,653.7,638.7,654.1,638z"/>
	<path class="st3" d="M660.1,670.9c1,0.5,1.4,1.1,0.3,2C659.9,672.3,659.8,671.7,660.1,670.9z"/>
	<path class="st3" d="M380.2,580.7c0.7-0.9,1.4-0.8,1.9,0.2C381.4,581.2,380.8,581.4,380.2,580.7z"/>
	<path class="st3" d="M365.2,578.7c0.8-0.9,1.4-0.7,1.9,0.2C366.4,579.4,365.8,579.3,365.2,578.7z"/>
	<path class="st3" d="M653.1,632c0.9,0.5,1.2,1.1,0.3,1.9C652.8,633.3,652.7,632.7,653.1,632z"/>
	<path class="st3" d="M341.2,574.7c0.9-1.1,1.5-0.7,2,0.3C342.5,575,341.9,574.9,341.2,574.7z"/>
	<path class="st3" d="M650.2,613c0.9,0.5,1.1,1.1,0.2,1.9C649.8,614.3,649.9,613.7,650.2,613z"/>
	<path class="st3" d="M336.2,573.7c0.9-1.1,1.5-0.7,2,0.3C337.5,574,336.9,573.9,336.2,573.7z"/>
	<path class="st3" d="M327.2,571.7c0.9-1.1,1.5-0.6,2,0.4C328.5,572,327.9,571.8,327.2,571.7z"/>
	<path class="st3" d="M322.4,570.5c1.1-0.6,2.1-0.6,2.8,0.6C324.1,571.3,323.2,571.1,322.4,570.5z"/>
	<path class="st3" d="M653.1,837.9c0.9,0.5,1.4,1,0.4,1.9C652.9,839.3,652.8,838.7,653.1,837.9z"/>
	<path class="st4" d="M435.1,579.1c-11.4-1.1-22.8-1.9-34.1-3.3c-14.6-1.8-29.2-3.4-43.8-5.6c-16.3-2.4-32.2-5.9-47.8-11.4
		c-5.4-1.9-10.3-5.4-16.3-5.9c0,0,0.1,0,0.1,0c-0.5-0.3-1-0.7-1.6-1c0,0-0.3-0.1-0.3-0.1c-0.3-1.3-1-2-2.4-1.8c0,0,0.1,0.1,0.1,0.1
		c-0.5-2.7-2.6-3.7-4.9-4.2c0,0,0.1,0.1,0.1,0.1c0-2.2-0.6-3.9-3.2-3.9c0,0,0.1,0.1,0.1,0.1c-0.3-0.4-0.7-0.8-1-1.2
		c0,0,0.1,0.1,0.1,0.1c-0.3-4.8-3.7-8.4-5.1-12.8c-4.1-13.4-0.8-25.8,4-38.2c2.4-6.2,5.6-12,6.1-18.8c1.9-7.5-3-12.9-6-18.9
		c-0.3-0.5-0.6-0.9-0.9-1.4c0,0,0,0,0,0c-0.1-1.4-0.2-2.8-2.1-2.9c0,0,0,0,0,0c-0.5-1.4-0.8-3-1.7-4c-3.9-4.4-3.3-8.3,0.6-12.2
		c0,0-0.2,0.1-0.2,0.1c1,0,1.9-0.2,1.9-1.4c0,0-0.1,0.1-0.1,0.1c1.5,0.5,2.3-0.1,2.4-1.7c0,0-0.1,0.1-0.1,0.1c3.5,0.3,6-2.7,9.4-3
		c6.4-0.7,12,0.8,16.9,5c0,0-0.1,0-0.1,0c-0.1,1.1,0.5,1.9,1.3,2.5c5.3,7.6,5,16.5,5.5,25.2c0.2,2.8,0.4,5.6,0.9,8.4
		c0.5,2.9,1.6,5.8,5.2,5.6c3.5-0.2,7.1-1.1,7.2-5.8c2-0.1,1.7-1.7,1.8-3c0.1-6-0.3-12,1.1-17.9c0,0-0.1,0.1-0.1,0.1
		c0.4-0.4,0.7-0.7,1.1-1.1c0,0-0.1,0.1-0.1,0.1c0.4-0.4,0.9-1,0.9-1c1.4-0.4,0.3-11.2,0.3-11.3c-1.3-6.6-2.2-13.2,0-19.9
		c2.6,5.2,7,8.4,10.8,12.2c3.1,3.1,6,7.3,7.5,11.9c2,6.1,5,11.6,9.1,16.5c2.8,3.4,4.7,7.3,6.3,11.3c2,5.2,5.8,5.8,10.5,4.9
		c5.1-1,7.8-3.8,8-8.7c0.2-6.2-2.2-11.7-4.8-17c-3.6-7.3-8.8-13.6-13.4-20.3c-0.4-0.5-0.7-1-1.1-1.5c0,0,0.1,0.1,0.1,0.1
		c-0.1-1.5-0.6-2.6-2.3-2.9c0,0,0.1,0.1,0.1,0.1c0.1-1.5,0.2-3.1-2.1-3.1c0,0,0.1,0.1,0.1,0.1c-0.1-1,0.1-2.1-0.4-2.9
		c-4.2-7.1-5.1-14.2-0.6-21.6c0,0-0.1,0.1-0.1,0.1c6.2-1.9,12.6-3.6,18.2-7c0,0-0.1,0.1-0.1,0.1c1.4-0.1,3.1,0.5,4.1-1
		c0,0-0.1,0.1-0.1,0.1c1.5,0,3,0.2,4.5-0.1c13.5-2.7,27.2-3.3,40.9-3c1,0,2-0.1,2.8-0.8c11.8,0,23.7-0.1,35.5-0.1
		c7-1.2,13.7,0.8,20.5,1.9c18.1,3.1,35.6,8.1,51.3,18.2c6.9,4.4,12,10.8,17.8,16.4c0.3,0.5,0.7,1,1,1.5c0,0-0.1-0.1-0.1-0.1
		c0,0.9,0.2,1.7,1.3,2c0,0-0.2-0.2-0.2-0.2c0.3,0.4,0.6,0.9,0.9,1.3c0,0-0.1-0.1-0.1-0.1c0.3,1.1,0.3,2.4,0.8,3.3
		c10.5,20.5,10.2,42,5.8,63.9c-1.4,7-4.8,13.5-4.7,20.8c0,0,0,0,0,0c-0.9,0.6-0.9,1.6-0.9,2.5c-2.2,6.7-4.5,13.3-6.5,20.1
		c-1,3.5-1.8,7.2,2.3,9.6c2.9,2.8,2.1,4.3-1.5,5.7c-8.4,3.2-16.6,6.7-24.9,10.1c-20.5,8.5-55.3,25.8-56.5,26.1"/>
	<path class="st4" d="M561.2,595.4c-2,7.4-3.9,14.9-5.9,22.3c-1.9,1.6-3.8,1.2-6,0.3c-18.2-7.3-36.4-14.6-54.7-21.7
		c-5.8-2.3-11.3-5.7-17.7-6.1c0,0,0.1,0.1,0.1,0.1c-0.3-2.1-1.8-2.3-3.5-2.3c-2.6-1.3-6-1.1-7.7-4.2c1.6-0.5,3.2-1,4.7-1.7
		c26.8-11,75.9-36.8,81.9-38c5.8-5.2,15.8-15.9,20.3-22.3c1.1-0.3,1.3-1.1,1.4-2.1c0,0-0.1,0.1-0.1,0.1c1.4-0.6,2.1-1.6,2-3.2
		c0,0-0.1,0.2-0.1,0.2c1.8-0.9,3.3-2,2.8-4.4c0,0-0.1,0.1-0.1,0.1c2.7-0.5,3.1-2.7,3.4-4.8c0,0-0.1,0.1-0.1,0.1
		c4.5,3.1,2.3,7.5,1.6,11.1c-3,15.8-9,30.8-13.9,46.1c-2.5,7.9-5.9,15.5-6.6,23.9c0,0,0,0,0,0c-1.1,0.8-0.9,2-0.9,3.1
		c0,0,0-0.1,0-0.1C560.9,592.8,561.3,594.2,561.2,595.4z"/>
	<path class="st2" d="M518,668.8c-1,0.1-2,0.2-3,0.3"/>
	<path class="st2" d="M293.1,553c6,0.5,10.9,4,16.3,5.9c15.5,5.5,31.5,9,47.8,11.4c14.6,2.1,29.2,3.7,43.8,5.6
		c11.3,1.4,22.7,2.2,34.1,3.3c8.9,0.9,15.9,1.8,24.5,4.2c-4.5,0.7-7-0.9-11.4-1.3c-26.1-2.9-52.3-4.5-78.3-8.2
		c-23.7-3.3-47.3-7.1-69.4-16.9C298,555.8,295.6,554.3,293.1,553z"/>
	<path class="st2" d="M558.1,509c-0.2-7.3,3.3-13.8,4.7-20.8c4.4-21.9,4.7-43.4-5.8-63.9c-0.5-1-0.5-2.2-0.8-3.3
		c6.8,9.1,9.5,19.7,10.6,30.6C568.8,471.4,565.7,490.5,558.1,509z"/>
	<path class="st2" d="M563.1,589c0.7-8.4,4.1-16,6.6-23.9c4.8-15.3,10.9-30.3,13.9-46.1c0.7-3.6,2.9-8-1.6-11.1
		c2.8-2.2,3.7-1.9,4,1.5c0.6,5.7-0.5,11.5-2.1,16.7C577.4,547.2,570.1,568,563.1,589z"/>
	<path class="st2" d="M285.1,471.2c-0.5,6.8-3.8,12.6-6.1,18.8c-4.8,12.4-8.1,24.8-4,38.2c1.4,4.4,4.9,8,5.1,12.8
		c-6.7-9-9.8-19.1-8.4-30.4c1.2-9.7,4.5-18.7,8.5-27.6C281.9,479.2,283.5,475.2,285.1,471.2z"/>
	<path class="st5" d="M564.6,668.7c3.5,2.6,8.5,1,11.9,4c-5.8,1.5-11.5,3.3-17.6,3.3c-0.2-1.6-0.5-3.2-0.7-4.8
		C560.3,670.3,562.5,669.5,564.6,668.7z"/>
	<path class="st2" d="M428.2,380.1c-0.8,0.8-1.8,0.9-2.8,0.8c-13.7-0.3-27.4,0.3-40.9,3c-1.4,0.3-3,0.1-4.5,0.1
		c7.4-2.8,15.2-2.8,22.9-3.7c6.1-0.7,12.2-0.7,18.3-1C423.4,380.7,425.9,379.6,428.2,380.1z"/>
	<path class="st2" d="M305.3,430.9c-4.9-4.2-10.5-5.7-16.9-5c-3.4,0.4-5.8,3.3-9.4,3c6.8-6.1,14.3-6.1,22.2-2.7
		C303.2,427.1,304.8,428.6,305.3,430.9z"/>
	<path class="st2" d="M358,391.8c-4.5,7.3-3.6,14.5,0.6,21.6c0.5,0.8,0.3,1.9,0.4,2.9c-3.2-4.1-5.3-8.7-5.8-13.9
		C352.8,397.8,353.9,394.1,358,391.8z"/>
	<path class="st5" d="M428.2,380.1c-2.3-0.5-4.8,0.6-7-0.8c13.3-0.6,26.6-0.6,39.8-0.2c1,0,2-0.2,2.7,0.9
		C451.9,380,440,380,428.2,380.1z"/>
	<path class="st2" d="M328.1,445.9c-1.4,5.9-1,11.9-1.1,17.9c0,1.3,0.2,2.8-1.8,3c0.2-5.2,0.3-10.5,0.5-15.7
		C325.9,449.1,326.1,447,328.1,445.9z"/>
	<path class="st2" d="M275.1,431.8c-3.9,3.9-4.5,7.8-0.6,12.2c0.9,1,1.1,2.7,1.7,4c-1.1-1.4-2.3-2.8-3.4-4.2
		C268.2,437.7,268.5,436.1,275.1,431.8z"/>
	<path class="st2" d="M376.1,384.8c-5.7,3.4-12,5.1-18.2,7C363.3,387.6,369.6,385.9,376.1,384.8z"/>
	<path class="st3" d="M564.6,668.7c-2.1,0.8-4.3,1.7-6.4,2.5c-0.7-4.2,3.5-3.3,5.3-4.9c0.8-0.7,2.5-1.8,2.7,0.9
		C565.6,667.6,565.1,668.1,564.6,668.7z"/>
	<path class="st2" d="M284.1,546c2.3,0.6,4.4,1.5,4.9,4.2C286.9,549.3,285.3,547.8,284.1,546z"/>
	<path class="st3" d="M330.8,436.6"/>
	<path class="st2" d="M582.1,507.8c-0.4,2.2-0.7,4.4-3.4,4.8C579.4,510.8,580.3,509,582.1,507.8z"/>
	<path class="st2" d="M280.9,542.1c2.6,0,3.2,1.7,3.2,3.9C282.6,545.1,281.5,543.8,280.9,542.1z"/>
	<path class="st2" d="M578.7,512.6c0.6,2.4-1,3.5-2.8,4.4C576.4,515.2,577.3,513.7,578.7,512.6z"/>
	<path class="st2" d="M330,444"/>
	<path class="st2" d="M360.8,419.1c1.6,0.3,2.2,1.4,2.3,2.9C362.4,421.1,361.6,420.1,360.8,419.1z"/>
	<path class="st2" d="M276.1,448c1.8,0.2,1.9,1.6,2.1,2.9C277.2,450.1,276.5,449.2,276.1,448z"/>
	<path class="st2" d="M473.5,588.1c1.7,0,3.2,0.2,3.5,2.3C475.5,590.1,474.4,589.3,473.5,588.1z"/>
	<path class="st3" d="M486.9,667c0.5,0.6,0.6,1.2,0.2,1.9C486.2,668.4,486,667.8,486.9,667z"/>
	<path class="st2" d="M380.1,383.9c-1.1,1.6-2.7,0.9-4.1,1C377.2,383.8,378.7,383.9,380.1,383.9z"/>
	<path class="st2" d="M279.1,428.9c-0.1,1.5-0.9,2.2-2.4,1.7C277.2,429.6,278,429,279.1,428.9z"/>
	<path class="st2" d="M358.9,416.1c2.2,0,2.1,1.6,2.1,3.1C360.3,418.2,359.6,417.1,358.9,416.1z"/>
	<path class="st2" d="M576,516.8c0.1,1.6-0.6,2.6-2,3.2C574.2,518.6,575,517.6,576,516.8z"/>
	<path class="st2" d="M288.9,550.1c1.4-0.2,2.1,0.5,2.4,1.8C290.2,551.7,289.4,551.1,288.9,550.1z"/>
	<path class="st2" d="M562.1,592.1c0.1-1.1-0.1-2.3,0.9-3.1C563,590.1,563.1,591.2,562.1,592.1z"/>
	<path class="st2" d="M561.2,595.4c0.1-1.2-0.2-2.6,1-3.4C562.2,593.2,562,594.4,561.2,595.4z"/>
	<path class="st2" d="M276.8,430.5c0,1.3-0.9,1.4-1.9,1.4C275.6,431.4,276.2,430.9,276.8,430.5z"/>
	<path class="st2" d="M306.4,433.4c-0.8-0.6-1.4-1.4-1.3-2.5C306.2,431.4,306.3,432.4,306.4,433.4z"/>
	<path class="st2" d="M555.4,419.9c-1.1-0.3-1.3-1.1-1.3-2C555,418.3,555.3,419,555.4,419.9z"/>
	<path class="st2" d="M557.2,511.5c0-0.9,0-1.9,0.9-2.5C557.8,509.8,557.5,510.6,557.2,511.5z"/>
	<path class="st2" d="M574.1,519.9c0,1-0.3,1.8-1.4,2.1C573.2,521.3,573.6,520.6,574.1,519.9z"/>
	<path class="st2" d="M330.1,443.8c-0.4,0.4-0.7,0.8-1.1,1.2C329.4,444.6,329.7,444.2,330.1,443.8z"/>
	<path class="st2" d="M556.2,421c-0.3-0.4-0.6-0.9-0.9-1.3C555.6,420.1,555.9,420.6,556.2,421z"/>
	<path class="st2" d="M291.6,552c0.5,0.3,1,0.7,1.6,1C292.6,552.7,292.1,552.3,291.6,552z"/>
	<path class="st2" d="M554.2,418c-0.3-0.5-0.7-1-1-1.5C553.6,417,553.9,417.5,554.2,418z"/>
	<path class="st2" d="M280,541c0.3,0.4,0.7,0.8,1,1.2C280.7,541.8,280.4,541.4,280,541z"/>
	<path class="st2" d="M363.1,422c0.4,0.5,0.7,1,1.1,1.5C363.8,423,363.4,422.5,363.1,422z"/>
	<path class="st2" d="M278.2,450.9c0.3,0.5,0.6,0.9,0.9,1.4C278.8,451.8,278.5,451.4,278.2,450.9z"/>
	<path class="st2" d="M329.1,444.9c-0.4,0.4-0.7,0.7-1.1,1.1C328.4,445.6,328.8,445.3,329.1,444.9z"/>
	<path class="st2" d="M376,280.6c15.4,0,30.8-0.1,46.2-0.1c1,2.5,3.1,1.4,4.8,1.4c43.4,0.1,86.8,0.1,130.2,0c1.7,0,3.7,0.7,5-1.2
		c0.3-0.3,0.6-0.2,0.9,0.1c0.5,2.3,1.5,2.8,3.2,0.9c6.8-0.1,13.5,0.4,20.1,1.6c1.7,0.3,3.7-0.2,4.9,1.6c-1.8,0.3-3.6,0.9-5.4,1
		c-18.9,1.2-37.4,4.8-56.1,7.7c-12.6,2-25.1,4.2-37.7,6.4c-2.1,0.3-4.4-0.8-6.2,1.1c-0.2,0.1-0.4,0-0.7,0c-1.8,0.2-3.8-0.7-5.4,1
		c-0.2,0-0.4,0-0.6,0c-5.2-0.2-10.2,1.2-15.2,2.1c-8.4,1.4-17.1,1.6-25.2,4.9c-0.2,0-0.4,0-0.7,0c-6.6,1.1-13.6,0.8-19.6,4.7
		c-9,1.8-17.8,3.9-26.1,7.9c-0.6-0.2-1.1-0.1-1.4,0.5c0,0-0.1,0-0.1,0c-2.4-0.5-4.5,0.6-6.7,1.3c-12.1,3.9-23.7,9.4-36.2,12
		c-10,2-20.1,3.7-30.1,5.5c-2.2-1.8-4.7-0.6-7-0.9c-1.5-0.2-2.9-0.4-4.4-0.7c-7.8-1.6-15.4-3.6-23.3-4.4c2-12-1-23.3-4.6-34.6
		c-1-3-4.4-6.3-2-9.1c3.4-4.2,7.5-8.2,13.5-8.6c6.6-0.4,13.3-0.5,19.9-0.6c8.6-0.2,17.2-0.2,25.9-0.3c0.5,1,1.4,1.4,2.5,1.4
		c8.5,0,17,0,25.5,0c1.1,0,1.9-0.4,2.2-1.5"/>
	<path class="st4" d="M607,288.1c10.1,4.1,18.9,10.1,25.8,18.8c1.8,2.3,7.1,13.9,8.4,21.1c1.7,9,1.2,18.1,0,27.2
		c-0.5,0.1-1,0.1-1.5,0.2c0,0,0.1-0.1,0.1-0.1c0.4-4.6-1.2-8.6-3.7-12.3c-1.7-4.6-2.3-9.4-5.6-13.6c-8.5-10.7-19.4-14.9-32.9-15.7
		c-53.3-3.4-106.6-3-160-1.5c-1.2,0-2.3-0.1-3.5-0.1c-0.1-3.1,3.3-1.3,4.2-3c0.2,0.1,0.4,0.1,0.7,0c6,0.4,11.9-1.1,17.7-2.2
		c7.6-1.5,15.5-1.5,22.7-4.8c0.2,0.1,0.4,0.1,0.6,0c1.8-0.2,3.8,0.5,5.4-1c0.2,0.1,0.4,0.1,0.7,0c2.1-0.3,4.4,0.6,6.2-1.1
		c12.6-2.1,25.1-4.4,37.7-6.4c18.6-2.9,37.2-6.4,56.1-7.7c1.8-0.1,3.6-0.7,5.4-1c1.3,0,2.7,0,4,0"/>
	<path class="st4" d="M318.1,340.9c10-1.8,20.1-3.5,30.1-5.5c12.5-2.5,24.1-8.1,36.2-12c2.2-0.7,4.3-1.9,6.7-1.3
		c-15,9.2-27.3,21-35.2,37c-1.4,2.8-3.3,5.5-6,7.2c-8.2,5-14.2,11.9-18.4,20.9c1-17.3-9.9-30.1-15.8-44.7
		C316.5,342,317.3,341.4,318.1,340.9z"/>
	<path class="st4" d="M283.4,334.9c7.9,0.8,15.6,2.8,23.3,4.4c1.4,0.3,2.9,0.5,4.4,0.7c0.2,1.1,0.1,2.3,1,3.1
		c-2.9,6.3-3.9,13.1-6,19.6c-0.5,1.7-1.2,3.3-1.8,5c-0.9,0.6-1.3,1.4-0.9,2.5c0,0,0.1,0,0.1,0c-2.9,2.3-4.4,5.3-4.3,9
		c0,0,0.1-0.2,0.1-0.2c-1.1,0.2-1.2,1.1-1.3,2c-1.2,2.1-2.7,3.8-5.4,4.1c-4.4-0.9-8.2-3.9-12.8-3.9c0,0,0.1,0.1,0.1,0.1
		c-0.2-0.7-0.6-1-1.3-0.9c0,0,0.1,0.1,0.1,0.1c0-1.1-0.8-1.4-1.7-1.5c-3.4-3.1-6.8-6.2-10.1-9.3c-1.3-1.2-2.9-2.5-2.4-4.5
		c0.6-2.3,2.8-5.2,3.7-6.5c3.3-4.5,6.7-9,9.8-13.7C280.2,341.8,281.7,338.3,283.4,334.9z"/>
	<path class="st5" d="M562.2,280.7c-1.3,1.9-3.3,1.2-5,1.2c-43.4,0-86.8,0-130.2,0c-1.6,0-3.8,1-4.8-1.4c15.3-0.1,30.6-0.4,45.9-0.4
		c29.6,0,59.2,0.1,88.8,0.2C558.6,280.3,560.5,279.9,562.2,280.7z"/>
	<path class="st5" d="M366.1,281.4c-0.3,1.1-1.1,1.5-2.2,1.5c-8.5,0-17,0-25.5,0c-1.1,0-1.9-0.4-2.5-1.4
		C346,281.1,356,280.8,366.1,281.4z"/>
	<path class="st3" d="M494.1,275c9-0.2,18-0.6,27,0.2C512.1,276.3,503.1,276.8,494.1,275z"/>
	<path class="st5" d="M438.3,309c-0.9,1.7-4.3-0.1-4.2,3c-1.1,0.1-2.3,0.2-3.4,0.3c-1.3-0.5-2.5-0.6-3.6,0.5
		c-2.8,0.3-5.6,0.6-8.4,0.9C424.7,309.8,431.7,310.1,438.3,309z"/>
	<path class="st2" d="M279.9,381.2c4.7,0.1,8.4,3,12.8,3.9C287.3,387.4,283.6,384.2,279.9,381.2z"/>
	<path class="st2" d="M636.1,343c2.5,3.7,4.1,7.7,3.7,12.3C637.6,351.5,636.6,347.3,636.1,343z"/>
	<path class="st5" d="M312.2,343.1c-1-0.8-0.9-2-1-3.1c2.3,0.3,4.9-0.9,7,0.9c-0.8,0.5-1.6,1.1-2.4,1.6
		C314.5,342.7,313.3,342.9,312.2,343.1z"/>
	<path class="st2" d="M299.3,379.2c-0.1-3.7,1.3-6.7,4.3-9C302.8,373.5,301.7,376.7,299.3,379.2z"/>
	<path class="st5" d="M566.3,281.7c-1.7,1.9-2.7,1.5-3.2-0.9C564.3,280.6,565.6,280.1,566.3,281.7z"/>
	<path class="st2" d="M639.7,355.4c0.5-0.1,1-0.1,1.5-0.2c-0.1,0.7-0.2,2.1-0.3,2.1C639.7,357.2,639.9,356.1,639.7,355.4z"/>
	<path class="st2" d="M303.5,370.3c-0.4-1.1,0-1.9,0.9-2.5C304.3,368.7,304.4,369.6,303.5,370.3z"/>
	<path class="st2" d="M277.1,379c0.9,0.1,1.7,0.4,1.7,1.5C278,380.3,277.4,379.8,277.1,379z"/>
	<path class="st2" d="M298.1,381c0.1-0.9,0.2-1.8,1.3-2C299.3,380,298.8,380.6,298.1,381z"/>
	<path class="st2" d="M278.7,380.3c0.7-0.1,1.2,0.2,1.3,0.9C279.6,381,279.1,380.6,278.7,380.3z"/>
	<path class="st4" d="M391.2,322c0.3-0.6,0.8-0.7,1.4-0.5C392.2,321.7,391.7,321.9,391.2,322z"/>
	<path class="st3" d="M512.5,431.1c1.4-1,4.4,1.5,4.6-1.7c0.2-2.3-2-3.3-4.2-3.2c-2.3,0.1-4.7,1.1-4.6,3.6
		C508.4,432.1,511,430.5,512.5,431.1z"/>
	<path class="st5" d="M479.4,302c-7.2,3.3-15.1,3.3-22.7,4.8c-5.8,1.1-11.7,2.6-17.7,2.2c8.1-3.3,16.7-3.5,25.2-4.9
		C469.2,303.3,474.2,301.8,479.4,302z"/>
	<path class="st5" d="M492.2,300c-1.9,1.6-4.1,0.8-6.2,1.1C487.8,299.2,490.1,300.3,492.2,300z"/>
	<path class="st5" d="M485.3,301c-1.6,1.5-3.5,0.9-5.4,1C481.5,300.3,483.5,301.2,485.3,301z"/>
	<path class="st4" d="M472.7,441.5c0.4-0.1,0.8-0.2,1.1-0.3c0,0.4,0,0.9,0,1.3C473.4,442.2,473.1,441.8,472.7,441.5z"/>
	<path class="st4" d="M512.5,431.1c-1.5-0.6-4.1,1-4.3-1.4c-0.1-2.5,2.3-3.5,4.6-3.6c2.2-0.1,4.4,0.9,4.2,3.2
		C516.9,432.6,513.9,430.2,512.5,431.1z"/>
</g>
<g>
	<line class="st3" x1="404.3" y1="354.6" x2="198.6" y2="354.6"/>
	<g>
		<line class="st6" x1="392.3" y1="354.6" x2="198.6" y2="354.6"/>
		<g>
			<path d="M404.3,354.6c-5.7-2.1-12.7-5.7-17.1-9.5l3.4,9.5l-3.4,9.5C391.6,360.3,398.6,356.7,404.3,354.6z"/>
		</g>
	</g>
</g>
<text transform="matrix(1 0 0 1 74.7865 360.0078)" class="st7 st8 st9">Hard Palate</text>
<g>
	<line x1="554.2" y1="343.1" x2="655.6" y2="160.1"/>
	<g>
		<line class="st6" x1="561" y1="330.8" x2="655.6" y2="160.1"/>
		<g>
			<polygon points="554.2,343.1 570.9,329.7 561.5,329.8 556.7,321.8 			"/>
		</g>
	</g>
</g>
<text transform="matrix(1 0 0 1 657.4221 156)" class="st10 st11">Soft Palate</text>
<g>
	<line x1="628.1" y1="430.7" x2="680.8" y2="430.7"/>
	<g>
		<line class="st6" x1="642.2" y1="430.7" x2="680.8" y2="430.7"/>
		<g>
			<polygon points="628.1,430.7 648,438.8 643.3,430.7 648,422.6 			"/>
		</g>
	</g>
</g>
<g>
	<line x1="625.7" y1="541" x2="678.4" y2="541"/>
	<g>
		<line class="st6" x1="639.8" y1="541" x2="678.4" y2="541"/>
		<g>
			<polygon points="625.7,541 645.6,549.1 640.9,541 645.6,532.9 			"/>
		</g>
	</g>
</g>
<text transform="matrix(1 0 0 1 687.4531 438.5163)" class="st10 st11">Upper Pharynx</text>
<text transform="matrix(1 0 0 1 684.7864 547.737)" class="st10 st11">Lower Pharynx</text>
<text transform="matrix(1 0 0 1 348.7406 222.8175)" class="st7 st12 st13">Nasal Cavity</text>
<text transform="matrix(1 0 0 1 392.6676 436.0845)" class="st14 st12 st13">Tounge</text>
</svg>
