<?xml version="1.0" encoding="utf-8"?>
<!-- Generator: Adobe Illustrator 19.0.0, SVG Export Plug-In . SVG Version: 6.00 Build 0)  -->
<svg version="1.1"
	 id="svg2700" xmlns:inkscape="http://www.inkscape.org/namespaces/inkscape" xmlns:cc="http://creativecommons.org/ns#" xmlns:dc="http://purl.org/dc/elements/1.1/" xmlns:svg="http://www.w3.org/2000/svg" xmlns:sodipodi="http://sodipodi.sourceforge.net/DTD/sodipodi-0.dtd" xmlns:rdf="http://www.w3.org/1999/02/22-rdf-syntax-ns#" inkscape:output_extension="org.inkscape.output.svg.inkscape" sodipodi:docname="IPA vowel chart.svg" inkscape:version="0.91 r13725" sodipodi:version="0.32"
	 xmlns="http://www.w3.org/2000/svg" xmlns:xlink="http://www.w3.org/1999/xlink" x="0px" y="0px" viewBox="156 -12.6 1031.7 744.6"
	 style="enable-background:new 156 -12.6 1031.7 744.6;" xml:space="preserve">
<style type="text/css">
	.st0{fill:#000000;stroke:#000000;stroke-width:4;}
	.st1{fill:#000000;stroke:#000000;stroke-width:4.0048;}
	.st2{fill:#000000;}
        @media (prefers-color-scheme: dark) {
	.st0{fill:#FFFFFF;stroke:#FFFFFF;stroke-width:4;}
	.st1{fill:#FFFFFF;stroke:#FFFFFF;stroke-width:4.0048;}
	.st2{fill:#FFFFFF;}}
</style>
<sodipodi:namedview  inkscape:zoom="0.5" inkscape:cx="-12.39399" bordercolor="#666666" pagecolor="#ffffff" id="base" fit-margin-top="20" showgrid="true" inkscape:cy="358.99415" borderopacity="1.0" fit-margin-left="30.000002" fit-margin-bottom="20" fit-margin-right="20" inkscape:window-maximized="1" inkscape:document-units="px" inkscape:window-height="706" inkscape:window-width="1366" inkscape:window-x="-8" inkscape:pageshadow="2" inkscape:current-layer="layer2" inkscape:pageopacity="0.0" inkscape:window-y="-8">
	
		<inkscape:grid  type="xygrid" id="grid2384" enabled="true" visible="true" originx="49.867983" originy="6.9033766" empspacing="5" snapvisiblegridlinesonly="true">
		</inkscape:grid>
</sodipodi:namedview>
<defs>
	
	
		<inkscape:perspective  inkscape:vp_y="0 : 1000 : 0" id="perspective2999" sodipodi:type="inkscape:persp3d" inkscape:vp_x="0 : 360 : 1" inkscape:vp_z="980 : 360 : 1" inkscape:persp3d-origin="490 : 240 : 1">
		</inkscape:perspective>
	
		<inkscape:perspective  inkscape:vp_y="0 : 1000 : 0" id="perspective3008" sodipodi:type="inkscape:persp3d" inkscape:vp_x="0 : 526.18109 : 1" inkscape:vp_z="744.09448 : 526.18109 : 1" inkscape:persp3d-origin="372.04724 : 350.78739 : 1">
		</inkscape:perspective>
</defs>
<g id="layer4" transform="translate(37.269806,16.779851)" inkscape:label="Trapezium Layer" sodipodi:insensitive="true" inkscape:groupmode="layer">
	<path id="path4371" inkscape:connector-curvature="0" class="st0" d="M710.1,677.2h282.7"/>
	<path id="path4188" inkscape:connector-curvature="0" class="st0" d="M772.3,239.1h226.6"/>
	<path id="path4190" inkscape:connector-curvature="0" class="st0" d="M407.8,239.1h223"/>
	<path id="path4208" inkscape:connector-curvature="0" class="st0" d="M845.1,457.8h146"/>
	<path id="path4234" inkscape:connector-curvature="0" class="st0" d="M576.3,457.8h130.9"/>
	<path id="path4315" inkscape:connector-curvature="0" class="st0" d="M800.3,539.4l-54.1-163.3"/>
	<path id="path4317" inkscape:connector-curvature="0" class="st0" d="M845.7,676.3l-27-81"/>
	<path id="path4326" inkscape:connector-curvature="0" class="st0" d="M727.7,320.4L627.9,19.3"/>
	<path id="path4337" inkscape:connector-curvature="0" class="st0" d="M1066,17.4l1,662l0,0"/>
	<path id="path4339" inkscape:connector-curvature="0" class="st1" d="M189.2,19.4l438.7,657.6"/>
	<path id="path4476" inkscape:connector-curvature="0" class="st0" d="M268.6,20h304.6"/>
	<path id="path4247" inkscape:connector-curvature="0" class="st0" d="M705.5,20h266.6"/>
</g>
<g id="layer2" transform="translate(49.867983,17.693317)" inkscape:label="Vowel Layer" inkscape:groupmode="layer">
	<g id="text4216">
		<path id="path4254" class="st2" d="M709.8,346.8H733v-0.2c0-4.2-0.8-7.4-2.4-9.5c-1.6-2.1-3.9-3.2-7-3.2c-2.4,0-4.3,0.6-5.8,1.8
			c-1.5,1.3-2.6,3.1-3.2,5.5h-4.3c0.9-3.4,2.4-6,4.7-7.7c2.3-1.7,5.4-2.6,9.1-2.6c4.6,0,8.2,1.5,11,4.5c2.8,3,4.2,7,4.2,11.9
			c0,4.9-1.4,8.9-4.1,11.9s-6.3,4.5-10.7,4.5c-4.7,0-8.3-1.5-10.8-4.4C711.2,356.5,709.8,352.3,709.8,346.8z M716.1,349.9
			c0.1,3.6,0.9,6.4,2.3,8.2c1.4,1.8,3.4,2.8,6.1,2.8c2.5,0,4.4-0.9,5.9-2.8s2.3-4.6,2.6-8.2H716.1z"/>
	</g>
	<g id="text4223">
		<path id="path4257" class="st2" d="M792.5,560.6v6.6h6.9c2.7,0,4.7-0.6,6-1.7s2-2.9,2-5.3c0-2.2-0.7-3.9-2-5.2s-3.1-1.9-5.4-1.9
			c-2.2,0-4.1,0.7-5.4,2.1C793.1,556.6,792.5,558.4,792.5,560.6z M787.1,570.3V554h-4.8v-3.1h10.2v3.4c1.2-1.4,2.6-2.5,4.1-3.2
			s3.4-1,5.5-1c3.5,0,6.2,0.9,8.2,2.8s3,4.3,3,7.4c0,3.2-1.2,5.7-3.5,7.5s-5.6,2.7-9.8,2.7h-7.6v2.1c0,2.4,0.7,4.2,2.2,5.5
			c1.4,1.3,3.4,1.9,6,1.9c2.1,0,3.9-0.5,5.1-1.5s2.1-2.4,2.4-4.3h2.8v6.3c-1.9,0.8-3.7,1.4-5.5,1.8c-1.8,0.4-3.5,0.6-5.2,0.6
			c-4.3,0-7.6-1.1-9.8-3.2C788.2,577.5,787.1,574.4,787.1,570.3z"/>
	</g>
	<g id="g4251" transform="translate(0,-0.23908675)">
		<path id="ellipse4229" class="st2" d="M706.7,238.4c0,9.9-8.1,18-18,18l0,0c-9.9,0-18-8.1-18-18s8.1-18,18-18
			S706.7,228.5,706.7,238.4L706.7,238.4z"/>
		<g id="text4231">
			<path id="path4261" class="st2" d="M629.7,238.2c0.1-5.5,1.4-9.7,3.9-12.7c2.5-2.9,6.1-4.3,10.8-4.3c4.4,0,8,1.5,10.7,4.5
				c2.7,3,4.1,7,4.1,11.9c0,5-1.4,8.9-4.2,12c-2.8,3-6.4,4.5-11,4.5c-3.8,0-6.8-0.9-9.1-2.6c-2.3-1.7-3.9-4.3-4.7-7.7h4.3
				c0.6,2.4,1.7,4.3,3.2,5.5c1.5,1.3,3.5,1.9,5.8,1.9c3.1,0,5.4-1.1,7-3.2c1.6-2.1,2.4-5.3,2.4-9.5v-0.2H629.7z M636.1,235.1H653
				c-0.3-3.6-1.2-6.3-2.6-8.2s-3.4-2.8-5.9-2.8c-2.7,0-4.7,0.9-6.1,2.8C637,228.7,636.2,231.5,636.1,235.1z"/>
		</g>
		<g id="text4235">
			<path id="path4264" class="st2" d="M733.2,251.2c2.9,0,5.1-1.1,6.6-3.4c1.2-1.9,1.9-4.6,2.1-8.1h-17.4c0.2,3.5,0.9,6.2,2.2,8.1
				C728.1,250,730.3,251.2,733.2,251.2z M724.4,236.5h17.5c-0.1-3.9-0.8-6.9-2.2-9c-1.5-2.3-3.7-3.4-6.6-3.4s-5.1,1.1-6.6,3.4
				C725.2,229.6,724.5,232.6,724.4,236.5z M733.2,254.1c-4.5,0-8.2-1.5-10.9-4.5c-2.8-3-4.1-7-4.1-12s1.4-8.9,4.1-11.9
				c2.8-3,6.4-4.5,11-4.5s8.2,1.5,11,4.5c2.7,3,4.1,7,4.1,11.9s-1.4,8.9-4.1,12C741.4,252.6,737.7,254.1,733.2,254.1z"/>
		</g>
	</g>
	<g id="g4308">
		<path id="circle4260" class="st2" d="M778.8,456.9c0,9.9-8.1,18-18,18s-18-8.1-18-18s8.1-18,18-18S778.8,447,778.8,456.9z"/>
		<g id="text4274">
			<path id="path4268" class="st2" d="M717.8,443.4c-1.8,0-3.5,0.4-4.9,1.3c-1.4,0.9-2.2,2.2-2.5,4h-3.2v-6.5
				c2.2-0.6,4.3-1.1,6.3-1.4c2-0.3,3.6-0.5,4.6-0.5c3.8,0,6.7,0.7,8.6,2c1.9,1.3,2.9,3.3,2.9,5.8c0,2.5-1,4.4-3,5.7
				c-1.1,0.7-2.4,1.2-4,1.6c2.3,0.5,4.2,1.3,5.6,2.3c2,1.5,3,3.6,3.1,6.2c0,2.9-1.2,5.2-3.5,6.7c-2.4,1.6-5.8,2.3-10.2,2.3
				c-1.6,0-3.4-0.2-5.4-0.5c-2.1-0.4-4.2-0.9-6.2-1.6V464h3.1c0,2,0.9,3.5,2.8,4.5c1.6,1,3.6,1.6,5.9,1.6c2.8,0,5-0.8,6.7-2.4
				c1-1,1.6-2.2,1.6-3.8c0-2.3-0.7-4-2.2-5.2c-1.5-1.2-3.8-1.8-6.9-1.8h-2.7v-3.1h2.7c5,0,7.5-1.9,7.5-5.6
				C724.6,445,722.3,443.4,717.8,443.4z"/>
		</g>
		<g id="text4278">
			<path id="path4271" class="st2" d="M808.2,470.4c2.1,0,3.7-0.5,4.8-1.6c1.1-1.1,1.7-2.5,1.7-4.4c0-2.1-0.7-3.6-2.1-4.6
				c-1.4-1-3.4-1.6-6.1-1.6h-1.1v-2.9h1.1c2.7,0,4.7-0.5,6.1-1.6c1.4-1,2.1-2.5,2.1-4.4c0-1.9-0.6-3.3-1.7-4.4
				c-1.1-1.1-2.7-1.6-4.9-1.6c-7.8,0-11.7,4.5-11.7,13.5C796.5,465.9,800.4,470.4,808.2,470.4z M790.2,456.9c0-10.9,6-16.4,18-16.4
				c4.4,0,7.6,0.8,9.7,2.3c2.1,1.5,3.1,3.6,3.1,6.4c0,1.9-0.7,3.5-2.2,4.9c-1.5,1.4-3.5,2.3-6.2,2.8c2.6,0.5,4.7,1.4,6.2,2.8
				c1.5,1.4,2.2,3.1,2.2,5.1c0,2.7-1,4.9-3.1,6.4c-2,1.5-5.3,2.3-9.7,2.3C796.2,473.3,790.2,467.9,790.2,456.9z"/>
		</g>
	</g>
	<g id="g4264">
		<path id="circle4320" class="st2" d="M1071.2,238.2c0,9.9-8.1,18-18,18c-9.9,0-18-8.1-18-18s8.1-18,18-18
			C1063.2,220.2,1071.2,228.2,1071.2,238.2z"/>
		<g id="text4338">
			<path id="path4275" class="st2" d="M1097.7,250.9c2.9,0,5.1-1.1,6.5-3.4c1.5-2.3,2.2-5.7,2.2-10.1s-0.7-7.8-2.2-10.1
				c-1.5-2.3-3.6-3.4-6.5-3.4s-5.1,1.1-6.6,3.4c-1.5,2.3-2.2,5.6-2.2,10.1s0.7,7.8,2.2,10.1S1094.8,250.9,1097.7,250.9z
				 M1097.7,253.8c-4.5,0-8.2-1.5-10.9-4.5c-2.8-3-4.1-7-4.1-12s1.4-8.9,4.1-11.9c2.8-3,6.4-4.5,11-4.5s8.2,1.5,10.9,4.5
				c2.8,3,4.1,7,4.1,11.9s-1.4,8.9-4.1,12C1105.9,252.3,1102.3,253.8,1097.7,253.8z"/>
		</g>
		<g id="text4334">
			<path id="path4278" class="st2" d="M997.8,223.1c1.7-1.3,3.7-2,5.9-2s4.7,2,7.6,6c2.9-4,6.3-5.9,10.2-5.9h0.1
				c0.9,0,1.7,0.6,2.3,1.7v2.2h-3.1v-0.6c0-0.9-0.5-1.4-1.4-1.4h0c-1.3,0-3.4,2.2-6.3,6.5c1.9,3,3.4,5.7,4.5,8.1
				c1.9,4,2.8,7.1,2.8,9.5c0,1.5-0.4,2.7-1.2,3.5c-2.1,2.1-5.3,3.1-9.8,3.1c-2.9,0-5.4-1-7.6-3.1c-1-0.9-1.4-2.1-1.4-3.7
				c0-2,0.8-4.5,2.3-7.6c1.3-2.4,3-5.2,5.2-8.3c-3-5.3-5-8-5.9-8c-0.8,0-1.2,0.8-1.2,2.5v0.5h-3V223.1L997.8,223.1z M1004.2,247.6
				c0,1.2,0.5,2,1.5,2.5c0.9,0.5,2.1,0.7,3.8,0.7c1.8,0,3.2-0.6,4.3-1.9c0.7-0.8,1.1-1.6,1.1-2.3c0-1.3-0.5-3.2-1.6-5.7
				c-0.9-2-2.1-4.4-3.6-7.1c-1.7,2.5-3.1,4.8-4,7.1C1004.7,243.2,1004.2,245.5,1004.2,247.6z"/>
		</g>
	</g>
	<g id="g4192" transform="translate(-364.5,0.31649241)">
		<path id="circle4194" class="st2" d="M706.7,238.4c0,9.9-8.1,18-18,18l0,0c-9.9,0-18-8.1-18-18s8.1-18,18-18
			S706.7,228.5,706.7,238.4L706.7,238.4z"/>
		<g id="text4196">
			<path id="path4282" class="st2" d="M659.3,238.2H636v0.2c0,4.2,0.8,7.4,2.4,9.5c1.6,2.1,3.9,3.2,7,3.2c2.4,0,4.3-0.6,5.8-1.8
				c1.5-1.3,2.6-3.1,3.2-5.5h4.3c-0.9,3.4-2.5,6-4.8,7.7c-2.3,1.7-5.3,2.6-9.1,2.6c-4.6,0-8.2-1.5-11-4.5c-2.8-3-4.1-7-4.1-12
				c0-4.9,1.4-8.9,4.1-11.9c2.7-3,6.3-4.5,10.7-4.5c4.7,0,8.3,1.5,10.8,4.4C657.9,228.5,659.2,232.7,659.3,238.2z M652.9,235.1
				c-0.1-3.6-0.9-6.4-2.3-8.2c-1.4-1.9-3.4-2.8-6.1-2.8c-2.5,0-4.4,0.9-5.9,2.8s-2.3,4.6-2.6,8.2H652.9z"/>
		</g>
		<g id="text4200">
			<path id="path4285" class="st2" d="M739.7,227.5c-0.7-1.1-1.7-1.9-2.8-2.5c-1.1-0.6-2.4-0.8-3.8-0.8c-2.9,0-5,1.1-6.5,3.4
				s-2.2,5.6-2.2,10.1c0,1.4,0.1,2.7,0.2,3.8c0.2,1.2,0.4,2.2,0.6,3.2L739.7,227.5z M726.6,247.7c0.8,1.2,1.7,2.1,2.8,2.7
				c1.1,0.6,2.4,0.8,3.8,0.8c2.9,0,5-1.1,6.5-3.4c1.5-2.3,2.2-5.7,2.2-10.1c0-1.5-0.1-2.8-0.2-4c-0.1-1.2-0.4-2.3-0.6-3.3
				L726.6,247.7z M744.5,226.2c1.2,1.4,2.1,3.1,2.8,5.1s0.9,4.1,0.9,6.4c0,5-1.4,8.9-4.1,12c-2.7,3-6.4,4.5-10.9,4.5
				c-1.8,0-3.5-0.3-5.1-0.8c-1.6-0.5-3-1.3-4.3-2.3l-4.2,5l-2.2-1.8l4.4-5.2c-1.2-1.5-2.1-3.2-2.7-5.1c-0.6-1.9-0.9-4-0.9-6.2
				c0-5,1.4-8.9,4.1-11.9c2.8-3,6.4-4.5,11-4.5c1.8,0,3.5,0.3,5.1,0.8c1.6,0.5,3,1.2,4.2,2.2l4.1-4.9l2.2,1.8L744.5,226.2
				L744.5,226.2z"/>
		</g>
	</g>
	<g id="g4252">
		<path id="circle4216" class="st2" d="M1071.2,456.9c0,9.9-8.1,18-18,18c-9.9,0-18-8.1-18-18s8.1-18,18-18
			C1063.2,438.9,1071.2,447,1071.2,456.9z"/>
		<g id="text4241">
			<path id="path4289" class="st2" d="M1082.7,449.9c0.8-3.3,2.2-5.8,4.4-7.6s5-2.6,8.4-2.6c4.5,0,8.2,1.5,10.9,4.5
				c2.8,3,4.1,7,4.1,12c0,5-1.4,9-4.1,12c-2.8,3-6.4,4.5-10.9,4.5c-2,0-3.9-0.2-5.9-0.7c-2-0.4-3.9-1.1-5.9-2.1v-8h3.1
				c0.4,2.7,1.3,4.7,2.7,6c1.4,1.3,3.3,1.9,5.9,1.9c2.9,0,5.1-1.1,6.6-3.4c1.5-2.3,2.2-5.6,2.2-10.1s-0.7-7.9-2.2-10.1
				c-1.5-2.3-3.7-3.4-6.6-3.4c-2.3,0-4.2,0.6-5.6,1.8s-2.3,3-2.8,5.5H1082.7z"/>
		</g>
		<g id="text4247">
			<path id="path4292" class="st2" d="M1008.8,440.6l11.5,28h3.5v3.1h-14.3v-3.1h5l-8.8-21.4l-8.8,21.4h4.7v3.1h-11.7v-3.1h3.5
				l11.5-28H1008.8z"/>
		</g>
	</g>
	<g id="g4284">
		<g id="text4276">
			<path id="path4295" class="st2" d="M513.8,469.7c2.9,0,5.1-1.1,6.5-3.4c1.5-2.3,2.2-5.7,2.2-10.1s-0.7-7.8-2.2-10.1
				c-1.5-2.3-3.6-3.4-6.5-3.4c-2.9,0-5.1,1.1-6.6,3.4c-1.5,2.3-2.2,5.6-2.2,10.1s0.7,7.8,2.2,10.1S510.9,469.7,513.8,469.7z
				 M552.1,456.7h-23.2v0.2c0,4.2,0.8,7.4,2.4,9.5c1.6,2.1,3.9,3.2,7,3.2c2.4,0,4.3-0.6,5.8-1.8c1.5-1.3,2.6-3.1,3.2-5.5h4.3
				c-0.9,3.4-2.5,6-4.8,7.7c-2.3,1.7-5.3,2.6-9.1,2.6c-2.5,0-4.8-0.5-6.9-1.4c-2-1-3.7-2.4-5.2-4.3c-1.3,1.9-3,3.3-5.1,4.3
				c-2,1-4.3,1.4-6.8,1.4c-4.5,0-8.2-1.5-10.9-4.5c-2.8-3-4.1-7-4.1-12s1.4-8.9,4.1-11.9c2.8-3,6.4-4.5,11-4.5
				c2.6,0,4.9,0.5,6.9,1.5c2,1,3.7,2.4,5.1,4.2c1.4-1.9,3.1-3.3,5.1-4.2c2-1,4.1-1.5,6.5-1.5c4.7,0,8.3,1.5,10.8,4.4
				C550.7,447,552,451.2,552.1,456.7z M545.7,453.6c-0.1-3.6-0.9-6.4-2.3-8.2c-1.4-1.9-3.4-2.8-6.1-2.8c-2.5,0-4.4,0.9-5.9,2.8
				s-2.3,4.6-2.6,8.2H545.7z"/>
		</g>
		<path id="circle4228" class="st2" d="M487.3,456.9c0,9.9-8.1,18-18,18s-18-8.1-18-18s8.1-18,18-18S487.3,447,487.3,456.9z"/>
		<g id="text4280">
			<path id="path4299" class="st2" d="M416.2,448c0-2.5,1-4.4,2.9-5.8c1.9-1.3,4.8-2,8.6-2c1.1,0,2.6,0.2,4.6,0.5
				c2,0.3,4.1,0.8,6.3,1.4v6.5h-3.2c-0.2-1.7-1.1-3-2.5-3.9s-3-1.3-4.9-1.3c-4.6,0-6.8,1.6-6.8,4.9c0,3.7,2.5,5.6,7.5,5.6h2.7v3.1
				h-2.7c-3.1,0-5.4,0.6-6.9,1.8c-1.4,1.2-2.2,2.9-2.2,5.2c0,1.5,0.5,2.8,1.6,3.8c1.7,1.6,3.9,2.4,6.7,2.4c2.3,0,4.2-0.5,5.9-1.6
				s2.6-2.5,2.8-4.5h3.2v6.8c-2.1,0.7-4.2,1.2-6.3,1.6c-2,0.4-3.8,0.5-5.4,0.5c-4.4,0-7.8-0.8-10.2-2.3c-2.4-1.5-3.6-3.8-3.5-6.7
				c0-2.6,1-4.7,3.1-6.2c1.4-1.1,3.3-1.8,5.6-2.3c-1.6-0.4-2.9-0.9-4-1.6C417.2,452.4,416.2,450.5,416.2,448z"/>
		</g>
	</g>
	<g id="g4416">
		<path id="circle4361" class="st2" d="M1072.7,676.3c0,9.9-8.1,18-18,18c-9.9,0-18-8.1-18-18s8.1-18,18-18
			C1064.7,658.3,1072.7,666.4,1072.7,676.3z"/>
		<g id="text4408">
			<path id="path4303" class="st2" d="M1094.7,686.2v4.9h-10.5V688h5.2v-24.9h-5.2V660h10.5v4.9c1.1-2,2.4-3.4,4-4.3
				c1.6-0.9,3.6-1.4,6-1.4c3.8,0,7,1.5,9.4,4.6c2.4,3,3.7,7,3.7,11.9s-1.2,8.8-3.6,11.9s-5.6,4.5-9.4,4.5c-2.4,0-4.4-0.5-6-1.4
				C1097.1,689.6,1095.8,688.2,1094.7,686.2z M1094.7,674v3.1c0,3.7,0.7,6.6,2.2,8.6c1.4,2,3.5,3,6.2,3c2.8,0,4.9-1.1,6.3-3.3
				c1.4-2.2,2.1-5.4,2.1-9.8c0-4.3-0.7-7.5-2.1-9.8c-1.4-2.2-3.5-3.3-6.3-3.3c-2.7,0-4.8,1-6.2,3
				C1095.4,667.4,1094.7,670.2,1094.7,674z"/>
		</g>
		<g id="text4412">
			<path id="path4306" class="st2" d="M1020.2,688h5.2v3.1h-10.5v-4.9c-1.1,2-2.4,3.4-4,4.3c-1.6,0.9-3.6,1.4-6,1.4
				c-3.8,0-7-1.5-9.4-4.5c-2.4-3-3.6-7-3.6-11.9s1.2-8.8,3.6-11.9s5.6-4.5,9.4-4.5c2.4,0,4.4,0.5,6,1.4c1.6,0.9,3,2.4,4,4.3V660
				h10.5v3.1h-5.2V688z M1014.8,677.1V674c0-3.7-0.7-6.6-2.2-8.6c-1.4-2-3.5-3-6.2-3c-2.8,0-4.9,1.1-6.3,3.3
				c-1.4,2.2-2.1,5.4-2.1,9.8c0,4.3,0.7,7.5,2.1,9.8c1.4,2.2,3.5,3.3,6.3,3.3c2.7,0,4.8-1,6.2-2.9
				C1014.1,683.7,1014.8,680.8,1014.8,677.1z"/>
		</g>
	</g>
	<g id="g4448">
		<path id="circle4425" class="st2" d="M632.7,676.3c0,9.9-8.1,18-18,18c-9.9,0-18-8.1-18-18s8.1-18,18-18
			C624.7,658.3,632.7,666.4,632.7,676.3z"/>
		<g id="text4440">
			<path id="path4310" class="st2" d="M662.1,663.3c-3.6-0.1-6.4,1-8.5,3.3c-2,2.2-3,5.2-3,9.1c0,3.9,1,7,3,9.2
				c2,2.2,4.8,3.3,8.5,3.3l0.8,0l1.3-0.3v-24.9l-1.3,0.3L662.1,663.3z M686.8,691.1h-25.6c-5.4,0-9.5-1.4-12.5-4.1
				s-4.5-6.6-4.5-11.5c0-4.9,1.5-8.7,4.5-11.4c3-2.7,7.2-4.1,12.6-4.1h25.3v6.9h-2.8l0-3.8h-14.1v9.6h10l0-3.6h2.8v10.3h-2.8l0-3.6
				h-10V688H684v-3.8h2.8V691.1z"/>
		</g>
		<g id="text4444">
			<path id="path4313" class="st2" d="M575.1,681.3v-6.6h-6.9c-2.7,0-4.7,0.6-6,1.7c-1.3,1.2-2,2.9-2,5.3c0,2.2,0.7,3.9,2,5.2
				c1.3,1.3,3.1,1.9,5.4,1.9c2.2,0,4.1-0.7,5.4-2.1C574.4,685.3,575.1,683.5,575.1,681.3z M580.5,671.6V688h4.8v3.1h-10.2v-3.4
				c-1.2,1.4-2.6,2.5-4.1,3.2c-1.6,0.7-3.4,1-5.5,1c-3.5,0-6.2-0.9-8.2-2.8c-2-1.8-3-4.3-3-7.4c0-3.2,1.2-5.7,3.5-7.5
				c2.3-1.8,5.6-2.7,9.8-2.7h7.6v-2.1c0-2.4-0.7-4.2-2.2-5.5c-1.4-1.3-3.4-2-6-2c-2.1,0-3.9,0.5-5.1,1.5c-1.3,1-2.1,2.4-2.4,4.3
				h-2.8v-6.3c1.9-0.8,3.7-1.4,5.4-1.8c1.8-0.4,3.5-0.6,5.2-0.6c4.3,0,7.6,1.1,9.8,3.2C579.4,664.5,580.5,667.6,580.5,671.6z"/>
		</g>
	</g>
	<g id="g4515">
		<path id="circle4457" class="st2" d="M635.2,19.1c0,9.9-8.1,18-18,18c-9.9,0-18-8.1-18-18s8.1-18,18-18
			C627.1,1.1,635.2,9.1,635.2,19.1z"/>
		<g id="text4495">
			<path id="path4318" class="st2" d="M575.8-7c0-0.9,0.3-1.7,1-2.3c0.7-0.7,1.5-1,2.4-1c0.9,0,1.7,0.3,2.3,1c0.7,0.7,1,1.4,1,2.3
				c0,0.9-0.3,1.7-1,2.3c-0.6,0.6-1.4,1-2.3,1c-0.9,0-1.7-0.3-2.4-1C576.1-5.3,575.8-6,575.8-7z M582.7,30.8h5.1v3.1h-15.6v-3.1h5.2
				V20.3h-5.2v-3.1h5.2V5.9h-5.2V2.7h10.5v14.4h5.1v3.1h-5.1V30.8z"/>
		</g>
		<g id="text4499">
			<path id="path4321" class="st2" d="M666.2,2.7h10.1v14.4h5.1v3.1h-5.1v10.5h5.1v3.1h-10.5v-5.5c-1,2.1-2.3,3.7-3.9,4.7
				c-1.6,1.1-3.4,1.6-5.5,1.6c-3.5,0-6-1-7.6-3c-1.6-2-2.4-5-2.4-9.2v-2.3h-4.9v-3.1h4.9V5.9h-4.9V2.7h10.3v14.4h14V5.9h-4.7V2.7z
				 M670.9,20.3h-14v0.6c0,3.8,0.5,6.4,1.4,7.8c0.9,1.4,2.6,2.1,5,2.1c2.5,0,4.4-0.9,5.7-2.8C670.2,26.2,670.9,23.6,670.9,20.3z"/>
		</g>
	</g>
	<g id="g4543">
		<path id="circle4524" class="st2" d="M199.2,19.1c0,9.9-8.1,18-18,18s-18-8.1-18-18s8.1-18,18-18S199.2,9.1,199.2,19.1z"/>
		<g id="text4526">
			<path id="path4325" class="st2" d="M139.8-7c0-0.9,0.3-1.7,1-2.3c0.7-0.7,1.5-1,2.4-1c0.9,0,1.7,0.3,2.3,1c0.7,0.7,1,1.4,1,2.3
				c0,0.9-0.3,1.7-1,2.3s-1.4,1-2.3,1s-1.7-0.3-2.4-1C140.1-5.3,139.8-6,139.8-7z M146.7,30.8h5.1v3.1h-15.6v-3.1h5.2V5.9h-5.2V2.7
				h10.5V30.8z"/>
		</g>
		<g id="text4539">
			<path id="path4328" class="st2" d="M223.7,39.6l2.1-5.2L214.1,5.9h-3.5V2.7h14.3v3.1h-5l8.8,21.4l8.8-21.4h-4.7V2.7h11.7v3.1H241
				l-14.3,35c-1,2.4-2.1,4.1-3.3,5c-1.2,0.9-2.9,1.3-5,1.3c-0.9,0-1.9-0.1-2.8-0.2c-1-0.2-1.9-0.4-2.9-0.7v-5.9h2.8
				c0.1,1.3,0.4,2.3,1,2.8c0.6,0.6,1.4,0.9,2.6,0.9c1.1,0,1.9-0.3,2.6-0.9C222.3,42.6,223,41.4,223.7,39.6z"/>
		</g>
	</g>
	<g id="g4240" transform="translate(0.1767767,-1.7163086e-7)">
		<path id="circle4552" class="st2" d="M1071.3,19.1c0,9.9-8.1,18-18,18c-9.9,0-18-8.1-18-18s8.1-18,18-18
			C1063.3,1.1,1071.3,9.1,1071.3,19.1z"/>
		<g id="text4571">
			<path id="path4332" class="st2" d="M1102.4,2.7h10.1v28h5.1v3.1H1107v-5.5c-1,2.1-2.3,3.7-3.9,4.7c-1.6,1.1-3.4,1.6-5.5,1.6
				c-3.5,0-6-1-7.6-2.9c-1.6-2-2.4-5.1-2.4-9.3V5.9h-4.9V2.7h10.3v18.1c0,3.8,0.5,6.4,1.4,7.8c0.9,1.4,2.6,2.1,5,2.1
				c2.5,0,4.4-0.9,5.7-2.8s2-4.5,2-8V5.9h-4.7V2.7z"/>
		</g>
		<g id="text4567">
			<path id="path4335" class="st2" d="M995,27.8c-1,2.3-2.4,4-4,5.2c-1.6,1.2-3.5,1.7-5.6,1.7c-3.3,0-5.7-1-7.3-3
				c-1.6-2-2.4-5.1-2.4-9.2V5.8h-4.9V2.7h10.3v19.2c0,3.2,0.5,5.4,1.4,6.8s2.5,2,4.7,2c2.4,0,4.2-0.9,5.5-2.7
				c1.3-1.8,1.9-4.5,1.9-7.9V5.8h-4.7V2.7h10.1v19.4c0,3.1,0.5,5.3,1.4,6.7c0.9,1.3,2.5,2,4.7,2c2.4,0,4.2-0.9,5.5-2.7
				c1.3-1.8,1.9-4.5,1.9-7.9V5.8h-4.7V2.7h10.1v28.1h5.2v3.1h-10.5v-5.5c-1,2.1-2.3,3.7-3.8,4.7s-3.3,1.6-5.2,1.6
				c-2.4,0-4.4-0.6-6.1-1.8C996.6,31.7,995.5,30,995,27.8z"/>
		</g>
	</g>
	<g id="text4290">
		<path id="path4338" class="st2" d="M482.6,571.4v-6.6h-6.9c-2.7,0-4.7,0.6-6,1.7s-2,2.9-2,5.3c0,2.2,0.7,3.9,2,5.2
			s3.1,1.9,5.4,1.9c2.2,0,4.1-0.7,5.4-2.1C481.9,575.4,482.6,573.6,482.6,571.4z M485.8,576.8c-1.6,1.8-3.4,3.1-5.4,4
			s-4.2,1.3-6.6,1.3c-3.8,0-6.8-0.9-8.9-2.7c-2.1-1.8-3.1-4.3-3.1-7.5c0-3.2,1.2-5.7,3.5-7.5c2.3-1.8,5.6-2.7,9.8-2.7h7.6v-2.1
			c0-2.3-0.7-4.2-2.1-5.5s-3.4-2-5.9-2c-2.3,0-4,0.5-5.3,1.5c-1.3,1-2.1,2.4-2.4,4.3h-2.8v-6.3c1.9-0.8,3.7-1.4,5.4-1.8
			c1.8-0.4,3.5-0.6,5.2-0.6c2.8,0,5.1,0.4,6.9,1.3c1.9,0.8,3.4,2.1,4.5,3.9c1.4-1.7,3.1-3,5-3.9c1.9-0.9,4-1.3,6.2-1.3
			c4.7,0,8.3,1.5,10.8,4.4s3.8,7.1,3.9,12.6h-23.2v0.2c0,4.2,0.8,7.4,2.3,9.5c1.6,2.1,3.9,3.2,7,3.2c2.4,0,4.3-0.6,5.8-1.8
			c1.5-1.3,2.6-3.1,3.2-5.5h4.3c-0.8,3.4-2.4,6-4.7,7.7s-5.4,2.6-9.1,2.6c-2.4,0-4.6-0.4-6.6-1.3
			C489.1,579.8,487.3,578.5,485.8,576.8z M505.8,563.1c-0.1-3.6-0.9-6.4-2.3-8.2c-1.4-1.9-3.4-2.8-6.1-2.8c-2.5,0-4.4,0.9-5.9,2.8
			c-1.4,1.9-2.3,4.6-2.6,8.2H505.8z"/>
	</g>
	<g id="text4298">
		<path id="path4341" class="st2" d="M332.8,140.9h5.1v3.1h-15.6v-3.1h5.2V116h-5.2v-3.1h15.6v3h-5.1V140.9L332.8,140.9z"/>
		<path id="path4343" class="st2" d="M370.6,144v-3.1h5.2v-8.9l-9.8-15.8h-5.1v-3.3H377v3.3h-5.4l7.7,12.4l7.7-12.4h-5.2v-3.3h13.9
			v3.3h-4.8l-9.6,15.4v9.3h5.1v3.1H370.6z"/>
	</g>
	<g id="text4311">
		<path id="path4346" class="st2" d="M940.6,115.5h-8.3c3,1.3,5.1,3.1,6.4,5.5c1.3,2.4,1.9,5.1,1.9,8.2c0,2.1-0.4,4.1-1.3,6.1
			s-2,3.6-3.6,5c-1.4,1.3-3,2.3-4.9,3c-1.8,0.7-3.8,1-5.9,1c-2.1,0-4-0.3-5.9-1s-3.4-1.7-4.9-3c-1.6-1.5-2.8-3.1-3.7-5
			c-0.8-1.9-1.2-3.9-1.2-6.1c0-3.1,0.6-5.8,1.9-8.2c1.3-2.4,3.4-4.3,6.4-5.5h-8.3v-3.1h13v3.1c-2.3,0.9-4.1,2.6-5.3,5.1
			c-1.2,2.5-1.8,5.2-1.8,8.2c0,3.6,0.9,6.5,2.6,8.7c1.8,2.2,4.1,3.3,7,3.3s5.2-1.1,6.9-3.3c1.8-2.2,2.7-5.1,2.7-8.7
			c0-3-0.6-5.7-1.8-8.2s-2.9-4.1-5.2-5v-3.1h13V115.5z"/>
	</g>
</g>
</svg>
