<?xml version="1.0" encoding="utf-8"?>
<!-- Generator: Adobe Illustrator 19.0.0, SVG Export Plug-In . SVG Version: 6.00 Build 0)  -->
<svg version="1.1" id="svg2" xmlns:svg="http://www.w3.org/2000/svg"
	 xmlns="http://www.w3.org/2000/svg" xmlns:xlink="http://www.w3.org/1999/xlink" x="0px" y="0px" viewBox="40 -140 800 1000"
	 style="enable-background:new 40 -140 800 1000;" xml:space="preserve">
<style type="text/css">
        .st0{fill:#E47872;stroke:#000000;stroke-width:3;stroke-linecap:square;}
	.st1{clip-path:url(#SVGID_2_);fill:#E47872;stroke:#000000;stroke-width:3;stroke-linecap:square;}
	.st2{fill:#000000;fill-opacity:0.9412;stroke:#000000;stroke-width:3;stroke-linecap:square;}
	.st3{fill:#FFFFFF;stroke:#000000;stroke-width:3;stroke-linecap:square;}
	.st4{fill:#000000;}
	.st5{font-family:'MyriadPro-Regular';}
	.st6{font-size:24px;}
	.st7{fill:none;stroke:#FFFFFF;stroke-width:2;stroke-miterlimit:10;}
        @media (prefers-color-scheme: dark) {
	.st0{fill:#E47872;stroke:#FFFFFF;stroke-width:3;stroke-linecap:square;}
	.st1{clip-path:url(#SVGID_2_);fill:#E47872;stroke:#FFFFFF;stroke-width:3;stroke-linecap:square;}
	.st2{fill:#FFFFFF;fill-opacity:0.9412;stroke:#000000;stroke-width:3;stroke-linecap:square;}
	.st3{fill:#FFFFFF;stroke:#FFFFFF;stroke-width:3;stroke-linecap:square;}
	.st4{fill:#FFFFFF;}
	.st5{font-family:'MyriadPro-Regular';}
	.st6{font-size:24px;}
	.st7{fill:none;stroke:#FFFFFF;stroke-width:2;stroke-miterlimit:10;}
        }
</style>
<g id="layer1">
	<path id="path3143" class="st0" d="M132.1,139.8c-3-5.9,16-27.2,29.9-26.2c20.6,1.6,34.1,17.9,50.7,19.2c8.9,0.7,29.2-1.3,44.1,2.2
		c19.7,4.7,40,11.8,60.4,18c57.6,17.4,93,22.6,152.7,26.1c58.9,3.5,91.8,16.2,135.5,17.9c23.3,0.9,39.6,2,57.2,16.4
		c18.4,15,23.7,36.9,21.9,70.2c-1.5,26.4-5.8,37.1-12.9,57.5c-3.6,10.4-7.5,20.9-8.1,30c-0.8,12.6-1.3,24.9-9.5,24.7
		c-7.6-0.2-12.4-3.1-12.2-14.2c0.2-11.4,5-19.8,3.6-34.7c-4-42.1-18.6-75.5-31.1-93.6c-12.2-17.8-28.9-27.4-48.3-32.1
		c-26.8-6.5-42.5-8-70.1-10c-22-1.6-24.6,0.5-46.7-1.4c-22.1-2-17.5-3.8-42.9-6.4c-25.4-2.7-34.8-4.1-58.6-4.3
		c-12.6-0.1-29.1,2.3-36.4,7.9c-13.4,10.2-18.5,23-27.9,28.6c-20,12.1-33.5,11.9-55.4,12.9c-15.8,0.7-25.6,3-28.2-1.4
		c-1.1-5,10.2-25.8-0.7-24.6c-8.5,0.9-10.9,31.5-24.7,50.7c-10.8,14.9-25.7,14.4-33.9,6.8c-11.4-10.5-14.5-22.3-5.7-37.1
		c7-11.7,12.3-29.3,23.6-44.3c12.9-17.1,20.1-37.1,5-50.7C154.8,139.6,137.2,149.9,132.1,139.8z"/>
	<g>
		<defs>
			<rect id="SVGID_1_" x="41.5" y="-138.5" width="797" height="997"/>
		</defs>
		<clipPath id="SVGID_2_">
			<use xlink:href="#SVGID_1_"  style="overflow:visible;"/>
		</clipPath>
		<path id="path2170" class="st1" d="M60.1,105c-10.5-2.7-11.7-24,13.5-56.4c49.6-63.8,99.8-168.9,179-195.9h601.7
			c1.5,23.3-2.2,697.8-2.4,922.8c-28.1-41.2-43.5-58.6-69.3-130.7c-36.3-101.3-71.5-207.6-75.7-315.7c-2.4-62.8,7.1-76.2,7.1-125.7
			c0-63.7-34.1-82.8-68.6-94.3c-34.9-11.6-76.8-44.6-79.1-69.1c-3-33.7,26.7-65.4,9.1-113.8c-13.5-28.1-60.9-15.8-97.1-21.4
			c-34.5-5.4-55.2-21-74.3-25.7c-48.9-12-60.8-0.2-105.7,8.6c-26.5,5.1-67.2,17.1-87.1,34.3c-19.1,16.5-32,34-55.4,54.3
			C133-4,115.4,31.2,111.2,42c-6.6,16.7-17,23.8-19.8,48.1C89.9,102.4,69.1,107.3,60.1,105z M851.2,797.6c0,0-34.9-55.8-38.6-58.2
			c-12.4-8.2-16.3-1.4-21.1,11.7c-3.9,10.5-5.3,29.5,1.4,39.6c10,14.8,21.5,12.8,34.1,24.9c15.3,14.7,24.2,47.8,24.2,47.8V797.6z
			 M645.1,876.1c-10.5-17.8-39.7-32.8-49.6-47.4C540,746.4,431.1,734,338.6,756.9c-46.8,11.6-116.5,31.1-149.1,14.1
			c-18.5-9.6-51.9-54.5-51.9-89.9c0-13.6,3.7-27.9,0-49.5c-4.9-28.6-32.4-23.3-38.5-38.9c-5.3-13.8,1.3-46.4,14.1-50.5
			c10.1-3.2,22.3,0.1,26.8,4.3c16.6,15.1,20.8,60,39.5,58.4c10.7-0.9-10.9-15.7-4.5-25.3c5.7-8.6,11-11.8,20.1-11.1
			c6.5,0.5,8.5,18.3,21.5,16c23-4,41.5-25.7,39.2-48.1c-3.1-29.8-27.3-48-56.4-50.3c-16-1.2-34.5-2.6-34.8-16.2
			c-0.5-26.8,52.3-34.9,76.6-34.9c36.8,0,99.9-0.5,162.5,4.4c42.8,3.4,89.1,10.6,117.1,36.6c40.4,37.5,44,77.7,50.6,128.3
			c1.4,10.8,6,34.7,8,49c1.4,10.2,16.2,14.1,18.7,0.5s0.2-30.2-4-44.4c-2.7-9-8.1-16-3.9-17.7c4.9-2,7.4,1.8,11.5,11.6
			c12.1,28.9,4.5,66.5,7.1,84.9c2.6,19.1,11.4,32.5,15,50.9c3.4,17.6,12.5,32,19.8,47.6c12.6,26.8,27,40.3,37.4,57.6
			c7.9,13.2,25.2,31.8,25.2,31.8L645.1,876.1z"/>
	</g>
	<path id="path3183" class="st2" d="M677.3,835.9c-1.6-38.9,83.9-48.4,120-43.6C797.8,819.9,690.4,846.2,677.3,835.9z"/>
	<path id="path3179" class="st3" d="M192.6,286.2c-10.5-5.7,24.4-69.1,35.7-65C239.4,225.2,206,293.5,192.6,286.2z"/>
	<path id="path3181" class="st3" d="M198.3,599.1c11.1-10.5-29.7-75.5-41.4-66.4C147.6,539.9,189.9,607,198.3,599.1z"/>
</g>
<text transform="matrix(1 0 0 1 177.8972 307)" class="st4 st5 st6">Dental</text>
<text transform="matrix(1 0 0 1 266.5422 344)" class="st4 st5 st6">Alveolar</text>
<text transform="matrix(1 0 0 1 307 280)" class="st4 st5 st6">Post-Alveolar</text>
<text transform="matrix(0.9964 8.502829e-002 -8.502829e-002 0.9964 329.7606 221.0532)" class="st4 st5 st6">Palatal / Hard Palate</text>
<text transform="matrix(1 0 0 1 421 325)" class="st4 st5 st6">Velar / Soft Palate</text>
<text transform="matrix(1 0 0 1 657 754)"><tspan x="0" y="0" class="st4 st5 st6">Glottal /</tspan><tspan x="0" y="28.8" class="st4 st5 st6">Vocal Cords</tspan></text>
<g>
	<line class="st4" x1="263" y1="254.8" x2="275" y2="320"/>
	<g>
		<line class="st7" x1="265.6" y1="268.6" x2="275" y2="320"/>
		<g>
			<polygon class="st4" points="263,254.8 258.6,275.8 265.7,269.7 274.6,272.9 			"/>
		</g>
	</g>
</g>
<g>
	<line class="st4" x1="297" y1="236" x2="329.8" y2="265"/>
	<g>
		<line class="st7" x1="306" y1="244" x2="329.8" y2="265"/>
		<g>
			<path class="st4" d="M297,236c2.9,5.3,5.7,12.7,6.5,18.5l3.7-9.4l8.9-4.8C310.3,240.2,302.6,238.2,297,236z"/>
		</g>
	</g>
</g>
<g>
	<line class="st4" x1="585" y1="236" x2="563" y2="302"/>
	<g>
		<line class="st7" x1="581.2" y1="247.5" x2="563" y2="302"/>
		<g>
			<path class="st4" d="M585,236c-3.8,4.7-9.4,10.3-14.4,13.2l10.1-0.3l7.9,6.3C586.4,249.9,585.2,242.1,585,236z"/>
		</g>
	</g>
</g>
<text transform="matrix(1 0 0 1 104 307)" class="st4 st5 st6">Labial</text>
<text transform="matrix(1 0 0 1 605.5 449.3333)" class="st4 st5 st6">Pharyngeal</text>
</svg>
