<?xml version="1.0" encoding="utf-8"?>
<!-- Generator: Adobe Illustrator 19.0.0, SVG Export Plug-In . SVG Version: 6.00 Build 0)  -->
<svg version="1.1" id="Layer_1" xmlns="http://www.w3.org/2000/svg" xmlns:xlink="http://www.w3.org/1999/xlink" x="0px" y="0px"
	 viewBox="348 -265 1495.3 730" style="enable-background:new 348 -265 1495.3 730;" xml:space="preserve">
<style type="text/css">
	.st0{fill:none;stroke:#4D9FB5;stroke-width:2;stroke-linejoin:round;stroke-miterlimit:10;}
</style>
<g>
	<g>
		<path class="st0" d="M343.3,240.2l1.9,1.9l1.9,5.5l1.9,8.9l1.9,11.9l1.9,14.4l1.9,16.2l1.9,17.3l1.9,17.5l1.9,16.6l1.9,14.4
			l1.9,10l1.9,2.9l1.9-4.9l1.9-10.1l1.9-12.3l1.9-12.7l1.9-11.8l1.9-10.1l1.9-7.7l1.9-4.7l1.9-1.5l1.9,2l1.9,5.6l1.9,9.2l1.9,13
			l1.9,17.6l1.9,24l1.9,28.6l1.9-23.9l1.9-41.9l1.9-40.2l1.9-40.1L406,215l1.9-41.1l1.9-40.5l1.9-38.6l1.9-35.2l1.9-30.4l1.9-24.1
			l1.9-16.6l1.9-8.3l1.9,0.6l1.9,9.5l1.9,18.2l1.9,26.1l1.9,33l1.9,38.5l1.9,42.4l1.9,44.7l1.9,45.1l1.9,43.8l1.9,41l1.9,37
			l1.9,33.6l1.9,31.4l1.9-14.7l1.9-22.9l1.9-18l1.9-14.7l1.9-11.8l1.9-9.1l1.9-6.5l1.9-3.9l1.9-1.4l1.9,1.1l1.9,3.4l1.9,4.1l1.9-0.5
			l1.9-14.6l1.9-31.4l1.9-42.7l1.9-49.7l1.9-54.4l1.9-57.5l1.9-58.9l1.9-58.5l1.9-56l1.9-51.3l1.9-44.4l1.9-35.4l1.9-24.7l1.9-12.8
			h1.9l1.9,12.9l1.9,25.3l1.9,36.8l1.9,46.8l1.9,55l1.9,61.1l1.9,65l1.9,67l-1.8,68.2l1.9,67.1l1.9,67.6l1.9,75l1.9,3.4l1.9-34.9
			l1.9-13.9l1.9-4.3l1.9,0.7l1.9,2.9l1.9,3.4l1.9,3l1.9,2.3l1.9,1.5l1.9,0.8l1.9,0.1l1.9-0.7l1.9-1.6l1.9-2.5l1.9-3.3l1.9-4l1.9-4.9
			l1.9-6.2l1.9-8.1l1.9-10.6l1.9-12.8l1.9-14.4l1.9-14.7l1.9-13.9l1.9-11.9l1.9-9l1.9-5.4l1.9-1.2l1.9,3.2l1.9,7.8l1.9,12.3
			l1.9,16.6l1.9,20.6l1.9,24.2l1.9,27.8l1.9,31.7l1.9,38l1.9,13.2l1.9-25.8l1.9-12.2l1.9-4.4l1.9,0.7l1.9,4.3l1.9,6.6l1.9,7.9
			l1.9,8.3l1.9,8.4l1.9,9l1.9,11l1.9,7l1.9-13.7l1.9-13.1l1.9-10.7l1.9-8.5l1.9-6.3l1.9-3.8l1.9-1.1l1.9,2l1.9,5.5l1.9,9.3l1.9,11.1
			l1.9-2.8l1.9-18.2l1.9-19l1.9-16.8l1.9-14.2l1.9-11.4l1.9-8.4l1.9-5.2l1.9-2l1.9,1.3l1.9,4.4l1.9,7.3l1.9,9.7l1.9,11.5l1.9,12.3
			l1.9,11.8l1.9,9.4l1.9,5.5l1.9,2l1.9,0.6l1.9,0.8l1.9,1.5l1.9,1.7l1.9,1l1.9-0.5l1.9-2l1.9-2.8l1.9-2.9l1.9-2.5l1.9-1.9l1.9-1.3
			l1.9-0.9l1.9-0.7l1.9-0.6l1.9-0.3l1.9,0.5l1.9,2l1.9,4.4l1.9,7.5l1.9,9.8l1.9,3.1l1.9-14.8l1.9-20.6l1.9-19.8l1.9-17.9l1.9-15.5
			l1.9-12.7l1.9-9.8l1.9-6.6l1.9-3.3h1.9l1.9,3.3l1.9,6.3l1.9,9.1l1.9,11.4l1.9,13.1l1.9,14.4l1.9,15l1.9,15l1.9,14.2l1.9,12.6
			l1.9,9.5l1.9,4.2l1.9-1.6l1.9-5l1.9-6.1l1.9-6l1.9-5.4l1.9-4.5l1.9-3.5l1.9-2.4l1.9-1.4l1.9-0.6h1.9l1.9,0.4l1.9,0.5l1.9,0.5
			l1.9,0.4l1.9,0.2l1.9-0.1l1.9-0.6l1.9-1.5l1.9-3.3l1.9-5.7l1.9-8.3l1.9-10.2l1.9-11.1l1.9-10.9l1.9-9.8l1.9-8l1.9-5.6l1.9-2.8
			l1.9,0.2l1.9,3.3l1.9,6.2l1.9,8.8l1.9,10.9l1.9,12.1l1.9,12.4l1.9,11.4l1.9,9.5l1.9,7.6l1.9,6.9l1.9,7.8l1.9,10.1l1.9,13.9
			l1.9,16.8l1.9-12.2l1.9-15.2l1.9-11l1.9-8.1l1.9-5.9l1.9-4.2l1.9-2.7l1.9-1.7l1.9-1.1l1.9-1.3l1.9-2.3l1.9-4l1.9-5.9l1.9-7.5
			l1.9-8.6l1.9-9.5l1.9-10.2l1.9-10.8l1.9-11.2l1.9-11.4l1.9-11.2l1.9-10.4l1.9-9l1.9-7.2l1.9-4.9l1.9-2.4l1.9,0.2l1.9,2.8l1.9,5.1
			l1.9,7.1l1.9,8.7l1.9,9.8l1.9,10.6l1.9,11l1.9,11.4l1.9,11.9l1.9,12.6l1.9,13.5l1.9,14.7l1.9,16.2l1.9,18.1l1.9,21.2l1.9,16.2
			l1.9-17l1.9-10.7l1.9-6.1l1.9-3.4l1.9-1.9l1.9-1.6l1.9-2.4l1.9-4.2l1.9-6.7l1.9-9.8l1.9-13.2l1.9-16.7l1.9-19.9l1.9-22.7l1.9-24.9
			l1.9-26.3l1.9-26.9l1.9-26.5l1.9-25.1l1.9-22.7l1.9-19.4l1.9-15.3l1.9-10.5l1.9-5.3l1.9-0.1l1.9,5l1.9,9.6l1.9,13.3l1.9,15.9
			l1.9,17.5l1.9,18.2l1.9,18.7l1.9,19.4l1.9,20.9l1.9,23.3l1.9,26.6l1.9,30.4l1.9,33l1.9,23l1.9-11l1.9-18.7l1.9-12.2l1.9-5.1
			l1.9,1.3l1.9,7.3l1.9,13.5l1.9,21.8l1.9,39.2l1.9-12.7l1.9-50.2l1.9-42.6l1.9-41.5l1.9-42.3l1.9-43.6l1.9-44.9l1.9-45.7l1.9-45.9
			l1.9-45.1l1.9-43l1.9-39.7l1.9-34.9l1.9-28.7l1.9-21.2l1.9-12.8l1.9-3.8l1.9,5.4l1.9,14.3l1.9,22.3l1.9,28.7l1.9,33.1l1.9,35
			l1.9,34l1.9,30.7l1.9,26.1l1.9,22l1.9,19.4l1.9,18.7l1.9,19.4l1.9,20.7l1.9,21.7l1.9,22l1.9,21.3l1.9,19.4l1.9,16.6l1.9,13.3
			l1.9,10.1l1.9,7.7l1.9,6.2l1.9,5.6l1.9,5.7l1.9,6l1.9,6.7l1.9,7.5l1.9,8.3l1.9,8.5l1.9,7.2l1.9,3l1.9-4l1.9-11l1.9-15.7l1.9-18
			l1.9-19l1.9-19.1l1.9-18.4l1.9-17.1l1.9-15l1.9-12.2l1.9-8.8l1.9-4.9l1.9-0.7l1.9,3.6l1.9,7.8l1.9,11.6l1.9,14.7l1.9,16.9
			l1.9,17.6l1.9,16.6l1.9,13.8l1.9,10.2l1.9,7.2l1.9,6.2l1.9,6.9l1.9,8.3l1.9,9.1l1.9,8l1.9,4.9l1.9,1.3l1.9-0.9l1.9-1.4l1.9-1.4
			l1.9-1.9l1.9-3.4l1.9-5.4l1.9-7.6l1.9-9.7l1.9-12.2l1.9-15l1.9-17.9l1.9-20.5l1.9-22.3l1.9-23.3l1.9-23.3l1.9-22.5l1.9-20.9
			l1.9-18.5l1.9-15.6l1.9-12.1l1.9-8.3l1.9-4.2h1.9l1.9,4.2l1.9,8.2l1.9,12l1.9,15.6l1.9,19l1.9,22.2l1.9,25.2l1.9,28l1.9,30.4
			l1.9,32.4l1.9,33.3l1.9,31.5l1.9,22.2l1.9,4.7l1.9-4.2l1.9-1.9l1.9,3.6l1.9,9.4l1.9,14.9l1.9,16.3l1.9-3.1l1.9-19.8l1.9-18.3
			l1.9-14.1l1.9-10.2l1.9-7.3l1.9-6.4l1.9-8.4l1.9-12.9l1.9-17.7l1.9-21.1l1.9-22.5l1.9-22.4l1.9-21.3l1.9-19.6l1.9-17.4l1.9-14.9
			l1.9-12l1.9-8.8l1.9-5.4l1.9-1.9l1.9,1.8l1.9,5.5l1.9,9.1l1.9,12.4l1.9,15.5l1.9,18.3l1.9,20.6l1.9,22.3l1.9,22.8l1.9,21.3
			l1.9,16.8l1.9,9.6l1.9,2.9l1.9-0.4l1.9-0.4l1.9,0.8l1.9,1.1l1.9-1.3l1.9-6.5l1.9-12l1.9-15.5l1.9-16.4l1.9-15.5l1.9-13.4l1.9-10.8
			l1.9-7.9l1.9-5.2l1.9-3l1.9-1.6l1.9-1.6l1.9-3.1l1.9-5.8l1.9-9.1l1.9-12.1l1.9-14l1.9-14.6l1.9-13.8l1.9-11.9l1.9-9.1l1.9-5.5
			l1.9-1.4l1.9,3.1l1.9,7.8l1.9,12.6l1.9,17.5l1.9,22.3l1.9,27.1l1.9,31.6l1.9,34.8l1.9,33.2l1.9,18.1l1.9-8.1l1.9-19.8l1.9-17.5
			l1.9-10.9l1.9-3.7l1.9,3l1.9,8.6l1.9,13l1.9,16.1l1.9,17.7l1.9,17l1.9,10.4l1.9-5.2l1.9-21.1l1.9-29.1l1.9-32.7l1.9-35.3l1.9-38.2
			l1.9-41l1.9-42.9l1.9-43.4l1.9-42.3l1.9-39.6l1.9-35.5l1.9-30.4l1.9-24.6l1.9-18.3l1.9-11.8l1.9-5.3l1.9,1.2l1.9,7.5l1.9,13.4
			l1.9,19l1.9,24l1.9,28.4l1.9,32.2l1.9,35.3l1.9,37.7l1.9,39.2l1.9,39.5l1.9,38.5l1.9,35.5l1.9,30.5l1.9,24.4l1.9,19.3l1.9,16.9
			l1.9,17.3l1.9,18.9l1.9,19l1.9,13.5l1.9,2l1.9-5.9l1.9-5.6l1.9-0.6l1.9,6l1.9,13.3l1.9,21.8l1.9,32.2l1.9,0.1l1.9-39.9l1.9-33.5
			l1.9-28.6l1.9-24.9l1.9-21.5l1.9-18l1.9-14.3l1.9-10.6l1.9-7l1.9-3.6l1.9-0.6l1.9,1.9l1.9,4.1l1.9,5.9l1.9,7.4l1.9,8.8l1.9,10
			l1.9,11l1.9,11.9l1.9,12.8l1.9,13.6l1.9,14.4l1.9,15.1l1.9,15.8l1.9,16.4l1.9,16.8l1.9,16.8l1.9,15.7l1.9,12l1.9,5l1.9-0.4
			l1.9-1.1l1.9,0.5l1.9,2.6l1.9,4.5l1.9,6.1l1.9,7.6l1.9,9l1.9,11l1.9,3.9l1.9-8.3l1.9-4.7l1.9-2.4l1.9-0.6l1.9,1l1.9,2.4l1.9,4
			l1.9,5.5l1.9,4.8l1.9-4.6l1.9-5.2l1.9-3.7l1.9-2.6l1.9-1.8l1.9-1.5l1.9-1.6l1.9-2l1.9-2.7l1.9-3.2l1.9-3.5l1.9-3.6l1.9-3.4l1.9-3
			l1.9-2.5l1.9-1.8l1.9-1.1l1.9-0.4l1.9,0.3l1.9,1l1.9,1.6l1.9,2.1l1.9,2.4l1.9,2.5l1.9,2.5l1.9,2.3l1.9,1.8l1.9,0.6l1.9-1.1
			l1.9-2.6l1.9-3.3l1.9-3l1.9-2l1.9-0.5l1.9,1.2l1.9,3l1.9,4.4l1.9,5l1.9,3.2l1.9-1.1l1.9-4l1.9-4.1l1.9-3.1l1.9-1.8l1.9-0.5
			l1.9,0.7l1.9,1.7l1.9,2.5l1.9,3.2l1.9,3.7l1.9,4.2l1.9,4.5l1.9,4.8l1.9,5l1.9,5.2l1.9,5.7l1.9,7.5l1.9-2.6l1.9-3l1.9-1l1.9,0.1
			l1.9,0.7l1.9,0.8l1.9,0.2l1.9-0.6l1.9-0.7l1.9-0.3l1.9,0.3l1.9,0.9l1.9,1.5l1.9,2.1l1.9,2.5l1.9-0.7l1.9-1.8l1.9-1.1l1.9-0.5h1.9
			l1.9,0.4l1.9,0.8l1.9,1.1l1.9,1.5l1.9,1.4l1.9-1.1l1.9-1.4l1.9-1l1.9-0.7l1.9-0.4l1.9-0.1l1.9,0.1l1.9,0.2l1.9,0.3l1.9,0.3
			l1.9,0.1l1.9-0.2l1.9-0.3l1.9-0.4l1.9-0.3l1.9-0.2l1.9-0.1h1.9l1.9,0.2l1.9,0.3l1.9,0.3l1.9,0.3l1.9,0.3l1.9,0.2l1.9,0.1h1.9h1.9
			l1.9-0.1l1.9-0.1h1.9l1.9,0.1l1.9,0.2l1.9,0.3l1.9,0.3l1.9,0.4l1.9,0.4l1.9,0.4l1.9,0.2h1.9l1.9-0.2l1.9-0.4l1.9-0.3l1.9-0.2
			l1.9-0.1l1.9,0.1l1.9,0.2l1.9,0.3l1.9,0.5l1.9,0.6l1.9,0.7l1.9,0.6l1.9-0.1l1.9-0.6l1.9-0.6l1.9-0.4l1.9-0.2h1.9l1.9,0.1l1.9,0.3
			l1.9,0.4"/>
	</g>
</g>
</svg>
