<?xml version="1.0" encoding="utf-8"?>
<!-- Generator: Adobe Illustrator 19.0.0, SVG Export Plug-In . SVG Version: 6.00 Build 0)  -->
<svg version="1.1" xmlns="http://www.w3.org/2000/svg" xmlns:xlink="http://www.w3.org/1999/xlink" x="0px" y="0px"
	 viewBox="0 0 960 640" style="enable-background:new 0 0 960 640;" xml:space="preserve">
<style type="text/css">
	.st0{font-family:'MyriadPro-Regular';}
	.st1{font-size:32px;}
	.st2{fill:#FFFFFF;}
	.st3{font-size:35px;}
	.st4{fill:none;stroke:#FFFFFF;stroke-width:2;stroke-miterlimit:10;}
	.st5{fill:none;stroke:#F1F2F2;stroke-width:2;stroke-miterlimit:10;}
	.st6{fill:#F1F2F2;}
</style>
<g id="Layer_1">
	<text id="XMLID_1_" transform="matrix(1 0 0 1 5.6668 77)" class="st0 st1">Visualization of singing played to headphones</text>
	<rect id="XMLID_2_" y="85" width="960" height="470.7"/>
	<rect id="XMLID_3_" y="50" width="960" height="540"/>
	<text id="XMLID_17_" transform="matrix(1 0 0 1 1.0002 25.5)" class="st2 st0 st3">Visualization of audio played to headphones</text>
	<text id="XMLID_18_" transform="matrix(1 0 0 1 213.3333 632.25)" class="st2 st0 st3">Visualization of your voice captured by microphone</text>
	<g id="XMLID_19_">
		<g id="XMLID_31_">
			<line id="XMLID_34_" class="st4" x1="577.9" y1="613" x2="592.4" y2="598.5"/>
			<g id="XMLID_32_">
				<path id="XMLID_33_" class="st2" d="M600.9,590c-2.5,5.5-5,13-5.4,18.8l-4.3-9.2l-9.2-4.3C587.9,595,595.4,592.5,600.9,590z"/>
			</g>
		</g>
	</g>
	<g id="XMLID_20_">
		<g id="XMLID_36_">
			<line id="XMLID_39_" class="st5" x1="266.5" y1="27" x2="281" y2="41.5"/>
			<g id="XMLID_37_">
				<path id="XMLID_38_" class="st6" d="M289.5,50c-5.5-2.5-13-5-18.8-5.4l9.2-4.3l4.3-9.2C284.5,37,287,44.5,289.5,50z"/>
			</g>
		</g>
	</g>
</g>
<g id="Layer_2">
</g>
</svg>
