<?xml version="1.0" encoding="utf-8"?>
<!-- Generator: Adobe Illustrator 19.0.0, SVG Export Plug-In . SVG Version: 6.00 Build 0)  -->
<svg version="1.1" id="Layer_1" xmlns="http://www.w3.org/2000/svg" xmlns:xlink="http://www.w3.org/1999/xlink" x="0px" y="0px"
	 viewBox="0 0 720 780.5" style="enable-background:new 0 0 720 780.5;" xml:space="preserve">
<style type="text/css">
	.st0{fill:#000000;}
        @media (prefers-color-scheme: dark) {.st0{fill:#FFFFFF;}}
	.st1{fill:none;stroke:#000000;stroke-miterlimit:10;}
</style>
<g id="XMLID_4_">
	<g id="XMLID_78_">
		<g id="XMLID_94_">
			<path id="XMLID_96_" class="st0" d="M720,330.5c-40.6,4.9-69.3,32.1-104.9,49.3c-34.3,16.6-62.5,9.5-94.2-9.1
				c-24.2-14.1-48.3-33.9-76.6-39c-31.2-5.6-59,13.2-84.2,28.8c-25.5,15.8-52.8,34.1-84.2,28.8c-28.1-4.7-52.7-25-76.6-39
				c-31.7-18.6-59.9-25.7-94.2-9.1C69.3,358.4,40.6,385.6,0,390.5c0-10,0-20,0-30c40.6-4.9,69.3-32.1,104.9-49.3
				c34.3-16.6,62.5-9.5,94.2,9.1c23.9,14,48.5,34.3,76.6,39c31.4,5.3,58.8-13,84.2-28.8c25.2-15.6,53-34.4,84.2-28.8
				c28.3,5.1,52.5,24.9,76.6,39c31.7,18.6,59.9,25.7,94.2,9.1c35.6-17.2,64.3-44.4,104.9-49.3C720,310.5,720,320.5,720,330.5z"/>
			<path id="XMLID_95_" class="st1" d="M720,330.5c-40.6,4.9-69.3,32.1-104.9,49.3c-34.3,16.6-62.5,9.5-94.2-9.1
				c-24.2-14.1-48.3-33.9-76.6-39c-31.2-5.6-59,13.2-84.2,28.8c-25.5,15.8-52.8,34.1-84.2,28.8c-28.1-4.7-52.7-25-76.6-39
				c-31.7-18.6-59.9-25.7-94.2-9.1C69.3,358.4,40.6,385.6,0,390.5c0-10,0-20,0-30c40.6-4.9,69.3-32.1,104.9-49.3
				c34.3-16.6,62.5-9.5,94.2,9.1c23.9,14,48.5,34.3,76.6,39c31.4,5.3,58.8-13,84.2-28.8c25.2-15.6,53-34.4,84.2-28.8
				c28.3,5.1,52.5,24.9,76.6,39c31.7,18.6,59.9,25.7,94.2,9.1c35.6-17.2,64.3-44.4,104.9-49.3C720,310.5,720,320.5,720,330.5z"/>
		</g>
		<g id="XMLID_91_">
			<path id="XMLID_93_" class="st0" d="M720,270.5c-40.6,4.9-69.3,32.1-104.9,49.3c-34.3,16.6-62.5,9.5-94.2-9.1
				c-24.2-14.1-48.3-33.9-76.6-39c-31.2-5.6-59,13.2-84.2,28.8c-25.5,15.8-52.8,34.1-84.2,28.8c-28.1-4.7-52.7-25-76.6-39
				c-31.7-18.6-59.9-25.7-94.2-9.1C69.3,298.4,40.6,325.6,0,330.5c0-10,0-20,0-30c40.6-4.9,69.3-32.1,104.9-49.3
				c34.3-16.6,62.5-9.5,94.2,9.1c23.9,14,48.5,34.3,76.6,39c31.4,5.3,58.8-13,84.2-28.8c25.2-15.6,53-34.4,84.2-28.8
				c28.3,5.1,52.5,24.9,76.6,39c31.7,18.6,59.9,25.7,94.2,9.1c35.6-17.2,64.3-44.4,104.9-49.3C720,250.5,720,260.5,720,270.5z"/>
			<path id="XMLID_92_" class="st1" d="M720,270.5c-40.6,4.9-69.3,32.1-104.9,49.3c-34.3,16.6-62.5,9.5-94.2-9.1
				c-24.2-14.1-48.3-33.9-76.6-39c-31.2-5.6-59,13.2-84.2,28.8c-25.5,15.8-52.8,34.1-84.2,28.8c-28.1-4.7-52.7-25-76.6-39
				c-31.7-18.6-59.9-25.7-94.2-9.1C69.3,298.4,40.6,325.6,0,330.5c0-10,0-20,0-30c40.6-4.9,69.3-32.1,104.9-49.3
				c34.3-16.6,62.5-9.5,94.2,9.1c23.9,14,48.5,34.3,76.6,39c31.4,5.3,58.8-13,84.2-28.8c25.2-15.6,53-34.4,84.2-28.8
				c28.3,5.1,52.5,24.9,76.6,39c31.7,18.6,59.9,25.7,94.2,9.1c35.6-17.2,64.3-44.4,104.9-49.3C720,250.5,720,260.5,720,270.5z"/>
		</g>
		<g id="XMLID_88_">
			<path id="XMLID_90_" class="st0" d="M720,210.5c-40.6,4.9-69.3,32.1-104.9,49.3c-34.3,16.6-62.5,9.5-94.2-9.1
				c-24.2-14.1-48.3-33.9-76.6-39c-31.2-5.6-59,13.2-84.2,28.8c-25.5,15.8-52.8,34.1-84.2,28.8c-28.1-4.7-52.7-25-76.6-39
				c-31.7-18.6-59.9-25.7-94.2-9.1C69.3,238.4,40.6,265.6,0,270.5c0-10,0-20,0-30c40.6-4.9,69.3-32.1,104.9-49.3
				c34.3-16.6,62.5-9.5,94.2,9.1c23.9,14,48.5,34.3,76.6,39c31.4,5.3,58.8-13,84.2-28.8c25.2-15.6,53-34.4,84.2-28.8
				c28.3,5.1,52.5,24.9,76.6,39c31.7,18.6,59.9,25.7,94.2,9.1c35.6-17.2,64.3-44.4,104.9-49.3C720,190.5,720,200.5,720,210.5z"/>
			<path id="XMLID_89_" class="st1" d="M720,210.5c-40.6,4.9-69.3,32.1-104.9,49.3c-34.3,16.6-62.5,9.5-94.2-9.1
				c-24.2-14.1-48.3-33.9-76.6-39c-31.2-5.6-59,13.2-84.2,28.8c-25.5,15.8-52.8,34.1-84.2,28.8c-28.1-4.7-52.7-25-76.6-39
				c-31.7-18.6-59.9-25.7-94.2-9.1C69.3,238.4,40.6,265.6,0,270.5c0-10,0-20,0-30c40.6-4.9,69.3-32.1,104.9-49.3
				c34.3-16.6,62.5-9.5,94.2,9.1c23.9,14,48.5,34.3,76.6,39c31.4,5.3,58.8-13,84.2-28.8c25.2-15.6,53-34.4,84.2-28.8
				c28.3,5.1,52.5,24.9,76.6,39c31.7,18.6,59.9,25.7,94.2,9.1c35.6-17.2,64.3-44.4,104.9-49.3C720,190.5,720,200.5,720,210.5z"/>
		</g>
		<g id="XMLID_85_">
			<path id="XMLID_87_" class="st0" d="M720,150.5c-40.6,4.9-69.3,32.1-104.9,49.3c-34.3,16.6-62.5,9.5-94.2-9.1
				c-24.2-14.1-48.3-33.9-76.6-39c-31.2-5.6-59,13.2-84.2,28.8c-25.5,15.8-52.8,34.1-84.2,28.8c-28.1-4.7-52.7-25-76.6-39
				c-31.7-18.6-59.9-25.7-94.2-9.1C69.3,178.4,40.6,205.6,0,210.5c0-10,0-20,0-30c40.6-4.9,69.3-32.1,104.9-49.3
				c34.3-16.6,62.5-9.5,94.2,9.1c23.9,14,48.5,34.3,76.6,39c31.4,5.3,58.8-13,84.2-28.8c25.2-15.6,53-34.4,84.2-28.8
				c28.3,5.1,52.5,24.9,76.6,39c31.7,18.6,59.9,25.7,94.2,9.1c35.6-17.2,64.3-44.4,104.9-49.3C720,130.5,720,140.5,720,150.5z"/>
			<path id="XMLID_86_" class="st1" d="M720,150.5c-40.6,4.9-69.3,32.1-104.9,49.3c-34.3,16.6-62.5,9.5-94.2-9.1
				c-24.2-14.1-48.3-33.9-76.6-39c-31.2-5.6-59,13.2-84.2,28.8c-25.5,15.8-52.8,34.1-84.2,28.8c-28.1-4.7-52.7-25-76.6-39
				c-31.7-18.6-59.9-25.7-94.2-9.1C69.3,178.4,40.6,205.6,0,210.5c0-10,0-20,0-30c40.6-4.9,69.3-32.1,104.9-49.3
				c34.3-16.6,62.5-9.5,94.2,9.1c23.9,14,48.5,34.3,76.6,39c31.4,5.3,58.8-13,84.2-28.8c25.2-15.6,53-34.4,84.2-28.8
				c28.3,5.1,52.5,24.9,76.6,39c31.7,18.6,59.9,25.7,94.2,9.1c35.6-17.2,64.3-44.4,104.9-49.3C720,130.5,720,140.5,720,150.5z"/>
		</g>
		<g id="XMLID_82_">
			<path id="XMLID_84_" class="st0" d="M720,90.5c-40.6,4.9-69.3,32.1-104.9,49.3c-34.3,16.6-62.5,9.5-94.2-9.1
				c-24.2-14.1-48.3-33.9-76.6-39c-31.2-5.6-59,13.2-84.2,28.8c-25.5,15.8-52.8,34.1-84.2,28.8c-28.1-4.7-52.7-25-76.6-39
				c-31.7-18.6-59.9-25.7-94.2-9.1C69.3,118.4,40.6,145.6,0,150.5c0-10,0-20,0-30c40.6-4.9,69.3-32.1,104.9-49.3
				c34.3-16.6,62.5-9.5,94.2,9.1c23.9,14,48.5,34.3,76.6,39c31.4,5.3,58.8-13,84.2-28.8c25.2-15.6,53-34.4,84.2-28.8
				c28.3,5.1,52.5,24.9,76.6,39c31.7,18.6,59.9,25.7,94.2,9.1c35.6-17.2,64.3-44.4,104.9-49.3C720,70.5,720,80.5,720,90.5z"/>
			<path id="XMLID_83_" class="st1" d="M720,90.5c-40.6,4.9-69.3,32.1-104.9,49.3c-34.3,16.6-62.5,9.5-94.2-9.1
				c-24.2-14.1-48.3-33.9-76.6-39c-31.2-5.6-59,13.2-84.2,28.8c-25.5,15.8-52.8,34.1-84.2,28.8c-28.1-4.7-52.7-25-76.6-39
				c-31.7-18.6-59.9-25.7-94.2-9.1C69.3,118.4,40.6,145.6,0,150.5c0-10,0-20,0-30c40.6-4.9,69.3-32.1,104.9-49.3
				c34.3-16.6,62.5-9.5,94.2,9.1c23.9,14,48.5,34.3,76.6,39c31.4,5.3,58.8-13,84.2-28.8c25.2-15.6,53-34.4,84.2-28.8
				c28.3,5.1,52.5,24.9,76.6,39c31.7,18.6,59.9,25.7,94.2,9.1c35.6-17.2,64.3-44.4,104.9-49.3C720,70.5,720,80.5,720,90.5z"/>
		</g>
		<g id="XMLID_79_">
			<path id="XMLID_81_" class="st0" d="M720,30.5c-40.6,4.9-69.3,32.1-104.9,49.3c-34.3,16.6-62.5,9.5-94.2-9.1
				c-24.2-14.1-48.3-33.9-76.6-39c-31.2-5.6-59,13.2-84.2,28.8c-25.5,15.8-52.8,34.1-84.2,28.8c-28.1-4.7-52.7-25-76.6-39
				c-31.7-18.6-59.9-25.7-94.2-9.1C69.3,58.4,40.6,85.6,0,90.5c0-10,0-20,0-30c40.6-4.9,69.3-32.1,104.9-49.3
				c34.3-16.6,62.5-9.5,94.2,9.1c23.9,14,48.5,34.3,76.6,39c31.4,5.3,58.8-13,84.2-28.8c25.2-15.6,53-34.4,84.2-28.8
				c28.3,5.1,52.5,24.9,76.6,39c31.7,18.6,59.9,25.7,94.2,9.1C650.7,32.6,679.4,5.4,720,0.5C720,10.5,720,20.5,720,30.5z"/>
			<path id="XMLID_80_" class="st1" d="M720,30.5c-40.6,4.9-69.3,32.1-104.9,49.3c-34.3,16.6-62.5,9.5-94.2-9.1
				c-24.2-14.1-48.3-33.9-76.6-39c-31.2-5.6-59,13.2-84.2,28.8c-25.5,15.8-52.8,34.1-84.2,28.8c-28.1-4.7-52.7-25-76.6-39
				c-31.7-18.6-59.9-25.7-94.2-9.1C69.3,58.4,40.6,85.6,0,90.5c0-10,0-20,0-30c40.6-4.9,69.3-32.1,104.9-49.3
				c34.3-16.6,62.5-9.5,94.2,9.1c23.9,14,48.5,34.3,76.6,39c31.4,5.3,58.8-13,84.2-28.8c25.2-15.6,53-34.4,84.2-28.8
				c28.3,5.1,52.5,24.9,76.6,39c31.7,18.6,59.9,25.7,94.2,9.1C650.7,32.6,679.4,5.4,720,0.5C720,10.5,720,20.5,720,30.5z"/>
		</g>
	</g>
</g>
<g id="XMLID_8_">
	<g id="XMLID_65_">
		<g id="XMLID_72_">
			<path id="XMLID_74_" class="st0" d="M720,600.5c-40.6,4.9-69.3,32.1-104.9,49.3c-34.3,16.6-62.5,9.5-94.2-9.1
				c-24.2-14.1-48.3-33.9-76.6-39c-31.2-5.6-59,13.2-84.2,28.8c-25.5,15.8-52.8,34.1-84.2,28.8c-28.1-4.7-52.7-25-76.6-39
				c-31.7-18.6-59.9-25.7-94.2-9.1C69.3,628.4,40.6,655.6,0,660.5c0-10,0-20,0-30c40.6-4.9,69.3-32.1,104.9-49.3
				c34.3-16.6,62.5-9.5,94.2,9.1c23.9,14,48.5,34.3,76.6,39c31.4,5.3,58.8-13,84.2-28.8c25.2-15.6,53-34.4,84.2-28.8
				c28.3,5.1,52.5,24.9,76.6,39c31.7,18.6,59.9,25.7,94.2,9.1c35.6-17.2,64.3-44.4,104.9-49.3C720,580.5,720,590.5,720,600.5z"/>
			<path id="XMLID_73_" class="st1" d="M720,600.5c-40.6,4.9-69.3,32.1-104.9,49.3c-34.3,16.6-62.5,9.5-94.2-9.1
				c-24.2-14.1-48.3-33.9-76.6-39c-31.2-5.6-59,13.2-84.2,28.8c-25.5,15.8-52.8,34.1-84.2,28.8c-28.1-4.7-52.7-25-76.6-39
				c-31.7-18.6-59.9-25.7-94.2-9.1C69.3,628.4,40.6,655.6,0,660.5c0-10,0-20,0-30c40.6-4.9,69.3-32.1,104.9-49.3
				c34.3-16.6,62.5-9.5,94.2,9.1c23.9,14,48.5,34.3,76.6,39c31.4,5.3,58.8-13,84.2-28.8c25.2-15.6,53-34.4,84.2-28.8
				c28.3,5.1,52.5,24.9,76.6,39c31.7,18.6,59.9,25.7,94.2,9.1c35.6-17.2,64.3-44.4,104.9-49.3C720,580.5,720,590.5,720,600.5z"/>
		</g>
		<g id="XMLID_69_">
			<path id="XMLID_71_" class="st0" d="M720,660.5c-40.6,4.9-69.3,32.1-104.9,49.3c-34.3,16.6-62.5,9.5-94.2-9.1
				c-24.2-14.1-48.3-33.9-76.6-39c-31.2-5.6-59,13.2-84.2,28.8c-25.5,15.8-52.8,34.1-84.2,28.8c-28.1-4.7-52.7-25-76.6-39
				c-31.7-18.6-59.9-25.7-94.2-9.1C69.3,688.4,40.6,715.6,0,720.5c0-10,0-20,0-30c40.6-4.9,69.3-32.1,104.9-49.3
				c34.3-16.6,62.5-9.5,94.2,9.1c23.9,14,48.5,34.3,76.6,39c31.4,5.3,58.8-13,84.2-28.8c25.2-15.6,53-34.4,84.2-28.8
				c28.3,5.1,52.5,24.9,76.6,39c31.7,18.6,59.9,25.7,94.2,9.1c35.6-17.2,64.3-44.4,104.9-49.3C720,640.5,720,650.5,720,660.5z"/>
			<path id="XMLID_70_" class="st1" d="M720,660.5c-40.6,4.9-69.3,32.1-104.9,49.3c-34.3,16.6-62.5,9.5-94.2-9.1
				c-24.2-14.1-48.3-33.9-76.6-39c-31.2-5.6-59,13.2-84.2,28.8c-25.5,15.8-52.8,34.1-84.2,28.8c-28.1-4.7-52.7-25-76.6-39
				c-31.7-18.6-59.9-25.7-94.2-9.1C69.3,688.4,40.6,715.6,0,720.5c0-10,0-20,0-30c40.6-4.9,69.3-32.1,104.9-49.3
				c34.3-16.6,62.5-9.5,94.2,9.1c23.9,14,48.5,34.3,76.6,39c31.4,5.3,58.8-13,84.2-28.8c25.2-15.6,53-34.4,84.2-28.8
				c28.3,5.1,52.5,24.9,76.6,39c31.7,18.6,59.9,25.7,94.2,9.1c35.6-17.2,64.3-44.4,104.9-49.3C720,640.5,720,650.5,720,660.5z"/>
		</g>
		<g id="XMLID_66_">
			<path id="XMLID_68_" class="st0" d="M720,720.5c-40.6,4.9-69.3,32.1-104.9,49.3c-34.3,16.6-62.5,9.5-94.2-9.1
				c-24.2-14.1-48.3-33.9-76.6-39c-31.2-5.6-59,13.2-84.2,28.8c-25.5,15.8-52.8,34.1-84.2,28.8c-28.1-4.7-52.7-25-76.6-39
				c-31.7-18.6-59.9-25.7-94.2-9.1C69.3,748.4,40.6,775.6,0,780.5c0-10,0-20,0-30c40.6-4.9,69.3-32.1,104.9-49.3
				c34.3-16.6,62.5-9.5,94.2,9.1c23.9,14,48.5,34.3,76.6,39c31.4,5.3,58.8-13,84.2-28.8c25.2-15.6,53-34.4,84.2-28.8
				c28.3,5.1,52.5,24.9,76.6,39c31.7,18.6,59.9,25.7,94.2,9.1c35.6-17.2,64.3-44.4,104.9-49.3C720,700.5,720,710.5,720,720.5z"/>
			<path id="XMLID_67_" class="st1" d="M720,720.5c-40.6,4.9-69.3,32.1-104.9,49.3c-34.3,16.6-62.5,9.5-94.2-9.1
				c-24.2-14.1-48.3-33.9-76.6-39c-31.2-5.6-59,13.2-84.2,28.8c-25.5,15.8-52.8,34.1-84.2,28.8c-28.1-4.7-52.7-25-76.6-39
				c-31.7-18.6-59.9-25.7-94.2-9.1C69.3,748.4,40.6,775.6,0,780.5c0-10,0-20,0-30c40.6-4.9,69.3-32.1,104.9-49.3
				c34.3-16.6,62.5-9.5,94.2,9.1c23.9,14,48.5,34.3,76.6,39c31.4,5.3,58.8-13,84.2-28.8c25.2-15.6,53-34.4,84.2-28.8
				c28.3,5.1,52.5,24.9,76.6,39c31.7,18.6,59.9,25.7,94.2,9.1c35.6-17.2,64.3-44.4,104.9-49.3C720,700.5,720,710.5,720,720.5z"/>
		</g>
	</g>
</g>
</svg>
